<?xml version="1.0" encoding="UTF-8" standalone="no"?>
<svg
   xmlns:dc="http://purl.org/dc/elements/1.1/"
   xmlns:cc="http://creativecommons.org/ns#"
   xmlns:rdf="http://www.w3.org/1999/02/22-rdf-syntax-ns#"
   xmlns:svg="http://www.w3.org/2000/svg"
   xmlns="http://www.w3.org/2000/svg"
   version="1.1"
   id="Layer_1"
   x="0px"
   y="0px"
   viewBox="0 0 358 190"
   xml:space="preserve"
   width="358"
   height="190"><metadata
   id="metadata43"><rdf:RDF><cc:Work
       rdf:about=""><dc:format>image/svg+xml</dc:format><dc:type
         rdf:resource="http://purl.org/dc/dcmitype/StillImage" /><dc:title></dc:title></cc:Work></rdf:RDF></metadata><defs
   id="defs41" /> <style
   type="text/css"
   id="style2"> .st0{fill:#003C70;} .st1{fill:#E57C00;} .st2{fill:#FFFFFF;} .st3{fill:#7C7C7B;} </style> <g
   id="g36"
   transform="translate(0,-86)"> <path
   class="st0"
   d="m 100.7,155.3 v -18.7 c 0,-2.3 -1.3,-4.3 -4.4,-4.3 -1.8,0 -3.2,0.6 -4.4,1.8 v 21.2 h -6 v -18.8 c 0,-2.5 -1.7,-4.2 -4.9,-4.2 -1.8,0 -2.7,0.2 -3.9,0.7 v 22.3 h -6 v -24.9 c 2.6,-1.3 5.5,-1.9 9.9,-1.9 4.2,0 6.7,1.2 8.2,2.9 1.8,-1.6 4.4,-2.9 8.4,-2.9 6.2,0 9,3.9 9,8 v 18.7 h -5.9 z"
   id="path4"
   style="fill:#003c70" /> <path
   class="st0"
   d="m 122.6,132.2 c -3.5,0 -5.9,2.8 -5.7,9.1 l 10.9,-1.7 c 0,-5.2 -1.9,-7.4 -5.2,-7.4 z m -5.4,12.2 c 0.5,4.9 2.8,7.3 7.2,7.3 3,0 5.2,-0.7 6.6,-1.5 l 1.4,3.8 c -1.9,1 -4.7,1.9 -8.7,1.9 -7.5,0 -12.2,-4.8 -12.2,-13.7 0,-8.6 4.3,-13.6 11.2,-13.6 7,0 10.8,4.6 10.5,13.5 z"
   id="path6"
   style="fill:#003c70" /> <path
   class="st0"
   d="m 147.4,155.6 c -5.2,0 -7.2,-3.5 -7.2,-7.1 v -15.7 h -2.9 V 129 h 2.9 v -5.8 l 6,-1.7 v 7.5 h 4.3 v 3.8 h -4.3 v 15.4 c 0,2 0.8,3.4 2.9,3.4 0.5,0 0.9,-0.1 1.4,-0.2 v 3.7 c -0.6,0.2 -1.7,0.5 -3.1,0.5 z"
   id="path8"
   style="fill:#003c70" /> <path
   class="st0"
   d="m 171.1,155.3 v -18.5 c 0,-2.3 -1.1,-4.4 -4.6,-4.4 -1.6,0 -2.9,0.3 -4.2,1.1 v 21.9 h -6 V 117 h 6 v 13.1 c 2,-1 3.9,-1.4 5.9,-1.4 6.6,0 8.9,3.9 8.9,8 v 18.6 z"
   id="path10"
   style="fill:#003c70" /> <path
   class="st0"
   d="m 192.9,132.3 c -4.2,0 -5,4.8 -5,9.9 0,5 0.9,9.6 5,9.6 4.2,0 5,-4.6 5,-9.6 0,-5.1 -0.8,-9.9 -5,-9.9 z m 0,23.5 c -7.4,0 -10.9,-5.9 -10.9,-13.6 0,-7.9 3.6,-13.7 10.9,-13.7 7.4,0 10.9,5.8 10.9,13.7 0,7.8 -3.6,13.6 -10.9,13.6 z"
   id="path12"
   style="fill:#003c70" /> <path
   class="st0"
   d="m 223.2,132.5 c -0.8,-0.2 -1.7,-0.3 -2.6,-0.3 -5.2,0 -6.9,4.4 -6.9,10 0,6 1.9,9.9 6.5,9.9 1.4,0 2.4,-0.1 3.1,-0.6 v -19 z m -3.2,23.3 c -7.8,0 -12.2,-5 -12.2,-13.3 0,-8.6 4.7,-13.7 11.5,-13.7 1.5,0 2.8,0.1 4,0.5 V 117 h 6 v 36.9 c -2.3,1.2 -5.2,1.9 -9.3,1.9 z"
   id="path14"
   style="fill:#003c70" /> <path
   class="st1"
   d="m 244.4,132.1 c -1.3,0 -2.2,0.2 -3.1,0.5 v 19 c 0.7,0.3 1.6,0.4 2.6,0.4 4.7,0 7,-3.7 7,-10 0.1,-6.2 -1.6,-9.9 -6.5,-9.9 z m 0.9,23.6 c -1.5,0 -3.1,-0.2 -4,-0.5 v 10.7 h -5.9 v -35.4 c 2,-1.1 4.9,-1.9 9.1,-1.9 7.7,0 12.3,4.9 12.3,13.3 0.1,8.6 -4.6,13.8 -11.5,13.8 z"
   id="path16"
   style="fill:#e57c00" /> <path
   class="st1"
   d="m 274.7,140.9 c -5.6,0.7 -9.1,1.9 -9.1,6.7 0,3.4 2,4.9 5.5,4.9 1.4,0 2.7,-0.3 3.6,-0.7 z m -4,14.9 c -7.2,0 -10.7,-2.9 -10.7,-8 0,-6.9 6.7,-8.9 14.7,-9.7 v -1.4 c 0,-3.4 -2.1,-4.3 -5.2,-4.3 -2.5,0 -5,0.8 -6.6,1.6 l -1.4,-3.4 c 1.7,-0.8 4.9,-2 9,-2 5.4,0 9.7,2.3 9.7,9.1 V 154 c -2,1 -5.4,1.8 -9.5,1.8 z"
   id="path18"
   style="fill:#e57c00" /> <path
   class="st1"
   d="m 298.1,132.9 c -2,-0.7 -4.2,-0.6 -5.6,0.2 v 22.2 h -6 v -24.9 c 2.7,-1.3 6,-2 12.7,-1.9 z"
   id="path20"
   style="fill:#e57c00" /> <polygon
   class="st1"
   points="309.6,141.9 309.5,141.9 309.5,155.3 303.6,155.3 303.6,117 309.5,117 309.5,140.9 309.6,140.9 318,129 324,129 314.9,141.1 325.1,155.3 318.4,155.3 "
   id="polygon22"
   style="fill:#e57c00" /> <path
   class="st1"
   d="m 52.7,143.1 -10.1,7.1 h -6.5 l 12.6,-8.1 -12.3,-7.9 h 6.2 l 10,6.5 v 2.4 z M 31,128.8 v 26.5 h 26.5 v -26.5 z"
   id="path24"
   style="fill:#e57c00" /> <polyline
   class="st2"
   points="42.7,134.2 36.5,134.2 48.8,142.1 36.2,150.2 42.7,150.2 52.7,143.1 52.7,140.8 "
   id="polyline26"
   style="fill:#ffffff" /> <path
   class="st3"
   d="m 291.8,177.7 c 0,0 0.6,0.2 1.4,0.2 1.5,0 2.5,-0.9 2.5,-3.2 0,-1.7 -0.6,-2.7 -1.8,-2.7 -1.4,0 -2.2,1.7 -2.2,3 v 2.7 z m 0,-6.6 c 0,0.5 0,1.1 -0.1,1.5 v 0 c 0.4,-1.1 1.4,-1.8 2.6,-1.8 1.9,0 2.9,1.3 2.9,3.7 0,2.8 -1.6,4.4 -4.1,4.4 -1.5,0 -2.7,-0.3 -2.7,-0.3 v -11.4 h 1.4 z"
   id="path28"
   style="fill:#7c7c7b" /> <path
   class="st3"
   d="m 302.2,179.6 c -0.9,2.5 -2,3.4 -3.8,3.4 -0.4,0 -0.9,-0.1 -0.9,-0.1 l 0.1,-1.2 c 0,0 0.5,0.1 0.9,0.1 0.9,0 1.5,-0.5 2.1,-2 l 0.3,-0.9 -3,-7.9 h 1.6 l 1.5,4.1 c 0.3,0.8 0.4,1.4 0.6,2 v 0 c 0.1,-0.6 0.4,-1.5 0.8,-2.5 l 1.3,-3.7 h 1.5 z"
   id="path30"
   style="fill:#7c7c7b" /> <path
   class="st3"
   d="m 318.7,174.8 c 0,2.8 -1.5,4.3 -4.3,4.3 -3.4,0 -4,-1.9 -4,-3.8 v -7.1 h 1.5 v 7 c 0,1.5 0.5,2.7 2.7,2.7 1.9,0 2.8,-0.8 2.8,-2.9 v -6.8 h 1.4 v 6.6 z"
   id="path32"
   style="fill:#7c7c7b" /> <polygon
   class="st3"
   points="323.1,168.1 323.1,177.7 327,177.7 327,178.9 321.6,178.9 321.6,168.1 "
   id="polygon34"
   style="fill:#7c7c7b" /> </g> <g
   transform="translate(-6.0000005e-8,71.589234)"
   id="g1034"
   style="display:block"><g
     transform="matrix(0.10643653,0,0,0.10612852,30.787127,30.788107)"
     id="g913"><path
       id="path4-3"
       style="fill:#949395"
       transform="translate(456.96777,2.1923828)"
       d="m 0,0 c 2.4911861,0.99001005 3.2572597,1.9826095 4.7744141,4.1748047 0.5014453,0.710918 1.0028906,1.4218359 1.5195312,2.1542969 0.5323828,0.7766601 1.0647656,1.5533203 1.6132813,2.3535156 1.162984,1.6544048 2.3270834,3.3080258 3.4921874,4.9609378 0.599092,0.855615 1.198184,1.71123 1.81543,2.592773 2.876713,4.070062 5.847503,8.068986 8.817383,12.071289 6.192071,8.378013 12.304763,16.811103 18.391113,25.266113 2.699008,3.747485 5.404275,7.490446 8.108887,11.233887 1.083363,1.499979 2.166696,2.999979 3.25,4.5 0.53625,0.7425 1.0725,1.485 1.625,2.25 4.875,6.75 4.875,6.75 6.499755,8.999756 1.084029,1.5009 2.168176,3.001713 3.252442,4.502441 2.698679,3.735543 5.395316,7.472526 8.087646,11.212647 5.553203,7.709789 11.139529,15.392729 16.785157,23.035159 6.190111,8.37948 12.304743,16.81107 18.391113,25.26611 2.69901,3.74749 5.40428,7.49045 8.10889,11.23389 1.08336,1.49998 2.16669,2.99998 3.25,4.5 0.80437,1.11375 0.80437,1.11375 1.625,2.25 4.875,6.75 4.875,6.75 6.49975,8.99975 1.08403,1.5009 2.16818,3.00172 3.25244,4.50244 2.69868,3.73555 5.39532,7.47253 8.08765,11.21265 5.5532,7.70979 11.13953,15.39273 16.78516,23.03516 6.19011,8.37948 12.30474,16.81107 18.39111,25.26611 2.69901,3.74749 5.40428,7.49045 8.10889,11.23389 1.08336,1.49998 2.16669,2.99998 3.25,4.5 0.80437,1.11375 0.80437,1.11375 1.625,2.25 56.875,78.75 56.875,78.75 58.49975,80.99975 1.08403,1.5009 2.16818,3.00172 3.25244,4.50244 2.69868,3.73555 5.39532,7.47253 8.08765,11.21265 5.5532,7.70979 11.13957,15.3927 16.78516,23.03516 6.26857,8.48666 12.47763,17.01439 18.62695,25.58789 1.21908,1.6977 2.44408,3.39115 3.66992,5.08398 0.62391,0.87141 1.24781,1.74281 1.89063,2.64063 0.50918,0.70769 1.01836,1.41539 1.54297,2.14453 1.40687,2.26398 2.34995,4.54573 3.26953,7.04297 0.66,0 1.32,0 2,0 1.50781,1.89843 1.50781,1.89843 3.125,4.375 0.53882,0.81211 1.07765,1.62422 1.63281,2.46093 1.24219,2.16407 1.24219,2.16407 1.24219,4.16407 0.66,0 1.32,0 2,0 1.50781,1.89843 1.50781,1.89843 3.125,4.375 0.53882,0.81211 1.07765,1.62422 1.63281,2.46093 1.24219,2.16407 1.24219,2.16407 1.24219,4.16407 0.66,0 1.32,0 2,0 0,0.99 0,1.98 0,3 0.99,0.33 1.98,0.66 3,1 0,0.99 0,1.98 0,3 0.66,0 1.32,0 2,0 1.4375,1.89843 1.4375,1.89843 3,4.375 1.57112,2.47452 2.92383,4.54883 5,6.625 0,0.99 0,1.98 0,3 0.99,0.33 1.98,0.66 3,1 1.60547,1.99609 1.60547,1.99609 3.1875,4.4375 0.5298,0.80308 1.05961,1.60617 1.60547,2.43359 1.20703,2.12891 1.20703,2.12891 1.20703,4.12891 0.66,0 1.32,0 2,0 0.64968,1.39218 0.64968,1.39218 1.3125,2.8125 1.43203,2.70496 2.53937,4.14166 4.6875,6.1875 0,0.66 0,1.32 0,2 0.66,0 1.32,0 2,0 2,3 2,3 2,6 0.99,0.33 1.98,0.66 3,1 0.66666,2 1.33333,4 2,6 0.99,0.33 1.98,0.66 3,1 1.35156,1.52343 1.35156,1.52343 2.625,3.375 0.42539,0.60586 0.85078,1.21172 1.28906,1.83593 1.08594,1.78907 1.08594,1.78907 2.08594,4.78907 0.51562,0.51562 1.03125,1.03125 1.5625,1.5625 1.4375,1.4375 1.4375,1.4375 1.4375,3.4375 0.66,0 1.32,0 2,0 0,0.66 0,1.32 0,2 -3.66293,-0.55674 -6.11662,-1.46245 -9.16577,-3.55347 -0.79028,-0.53582 -1.58055,-1.07164 -2.39477,-1.6237 -1.26747,-0.87717 -1.26747,-0.87717 -2.56056,-1.77205 -0.88829,-0.60472 -1.77658,-1.20943 -2.69178,-1.83248 -1.89758,-1.29271 -3.79272,-2.58898 -5.68566,-3.88847 -4.89425,-3.35946 -9.80575,-6.69349 -14.71631,-10.02905 -1.43096,-0.97331 -1.43096,-0.97331 -2.89084,-1.96628 -6.72534,-4.56618 -13.50203,-9.02325 -20.39431,-13.3345 -7.12526,-4.46393 -14.10521,-9.08828 -21.02564,-13.86328 -6.43308,-4.43598 -12.90995,-8.80228 -19.41186,-13.13672 -0.54853,-0.36568 -1.09706,-0.73136 -1.6622,-1.10813 -7.78328,-5.18556 -15.58904,-10.33655 -23.40421,-15.4739 -3.66546,-2.41001 -7.33081,-4.82019 -10.99609,-7.23047 -0.93067,-0.61185 -1.86133,-1.22371 -2.82019,-1.8541 -15.29031,-10.05717 -30.47968,-20.25667 -45.63294,-30.51886 -9.94078,-6.729 -19.89172,-13.41196 -30.04687,-19.81454 -12.0408,-7.59144 -23.80149,-15.58444 -35.58576,-23.5658 -15.8381,-10.72402 -31.765572,-21.30347 -47.774107,-31.77136 -9.023298,-5.90977 -17.974924,-11.89711 -26.815918,-18.07691 -1.705675,-1.18423 -3.411563,-2.36815 -5.117675,-3.55175 -3.185553,-2.2106 -6.347416,-4.45035 -9.499024,-6.70899 -1.426391,-0.99244 -2.853591,-1.98372 -4.281738,-2.97363 -0.623045,-0.45984 -1.246091,-0.91969 -1.888016,-1.39346 -4.142433,-2.8187 -7.006965,-3.43021 -11.944519,-2.57111 -5.5388702,1.30931 -10.9924484,2.86868 -16.4448089,4.49582 -1.3823684,0.40637 -2.764943,0.81204 -4.1477051,1.21707 -2.9760833,0.87324 -5.950744,1.75111 -8.924377,2.63266 -4.797136,1.422 -9.597365,2.83336 -14.398133,4.24304 -5.070029,1.48926 -10.139854,2.9792 -15.208648,4.47266 -16.399862,4.83187 -32.814021,9.61402 -49.230988,14.38739 -4.916571,1.4296 -9.832743,2.86058 -14.748843,4.29181 -26.30637,7.6583 -52.61589,15.30574 -78.92563,22.95245 -25.83564,7.50896 -51.66963,15.02355 -77.50161,22.54511 -1.62995,0.47458 -3.25989,0.94916 -4.88983,1.42373 -5.6874,1.65597 -11.37477,3.31202 -17.06211,4.96818 -1.20404,0.35062 -1.20404,0.35062 -2.4324,0.70832 -8.22795,2.39608 -16.4558,4.79251 -24.68353,7.18932 -20.55568,5.98801 -41.11216,11.97327 -61.66994,17.95406 -5.81992,1.69328 -11.63949,3.38776 -17.45897,5.08256 -7.39952,2.15489 -14.79963,4.30771 -22.20045,6.4581 -3.85051,1.11886 -7.70076,2.23859 -11.55034,3.36059 -3.54639,1.0336 -7.09349,2.06473 -10.64117,3.09385 -1.91505,0.55623 -3.82933,1.11512 -5.74358,1.67407 -1.12953,0.32712 -2.25906,0.65424 -3.42281,0.99127 -0.98306,0.28593 -1.96611,0.57185 -2.97896,0.86644 -2.32841,0.60451 -2.32841,0.60451 -4.32841,0.60451 0.43151,-4.32516 3.21575,-6.37853 6.3125,-9.0625 1.09787,-0.97762 2.19552,-1.95549 3.29297,-2.9336 0.5638,-0.49741 1.1276,-0.99483 1.70849,-1.50732 2.6355,-2.33936 5.22095,-4.73222 7.81104,-7.12158 3.5854,-3.29192 7.18844,-6.56315 10.8125,-9.8125 4.96488,-4.45648 9.86385,-8.98198 14.76172,-13.51172 6.70862,-6.20395 13.43541,-12.38765 20.23828,-18.48828 4.96488,-4.45648 9.86385,-8.98198 14.76172,-13.51172 6.70862,-6.20395 13.43541,-12.38765 20.23828,-18.48828 4.45536,-3.99768 8.85333,-8.05451 13.24585,-12.12085 3.2503,-3.00561 6.51962,-5.98717 9.81665,-8.94165 4.9459,-4.43371 9.82286,-8.93944 14.69922,-13.44922 6.70862,-6.20395 13.43541,-12.38765 20.23828,-18.48828 4.96488,-4.45648 9.86385,-8.98198 14.76172,-13.51172 6.70862,-6.20395 13.43541,-12.38765 20.23828,-18.48828 4.96488,-4.45648 9.86385,-8.98198 14.76172,-13.51172 6.70862,-6.20395 13.43541,-12.38765 20.23828,-18.48828 4.96488,-4.45648 9.86385,-8.98198 14.76172,-13.51172 6.70862,-6.20395 13.43541,-12.38765 20.23828,-18.48828 4.96488,-4.45648 9.86385,-8.98198 14.76172,-13.51172 6.70862,-6.20395 13.43541,-12.38765 20.23828,-18.48828 4.96488,-4.45648 9.86385,-8.98198 14.76172,-13.51172 6.70862,-6.20395 13.43541,-12.38765 20.23828,-18.48828 4.96488,-4.45648 9.86385,-8.98198 14.76172,-13.511722 6.70862,-6.203948 13.435413,-12.387649 20.238277,-18.488281 4.96488,-4.456477 9.863849,-8.98198 14.761718,-13.511719 6.708624,-6.203948 13.435418,-12.387649 20.238282,-18.488281 4.96488,-4.456477 9.863849,-8.98198 14.761718,-13.511719 7.566741,-6.997511 15.14991,-13.978553 22.847657,-20.832031 1.743653,-1.5770621 3.459838,-3.1847288 5.1562496,-4.8124998 0.8817187,-0.8353125 1.7634375,-1.670625 2.671875,-2.53125 C -5.8012891,2.9169141 -5.0098047,2.1512109 -4.1943359,1.3623047 -1.9677734,-0.19238281 -1.9677734,-0.19238281 0,0 Z" /><path
       id="path6-6"
       style="fill:#97c03d"
       transform="translate(374,43)"
       d="M 0,0 C 0,4 0,4 -1.6875,6.1132812 -2.8321875,7.2018945 -2.8321875,7.2018945 -4,8.3125 -4.8224219,9.0988281 -5.6448437,9.8851563 -6.4921875,10.695313 -9.9407283,13.864532 -13.437504,16.959907 -17,20 c -0.964863,0.856582 -0.964863,0.856582 -1.949219,1.730469 -0.922324,0.814043 -0.922324,0.814043 -1.863281,1.644531 -0.542695,0.482109 -1.085391,0.964219 -1.644531,1.460937 -3.470772,2.618456 -7.695387,2.562619 -11.867188,2.960938 -1.506921,0.151908 -3.013754,0.304694 -4.520508,0.458252 -0.790235,0.08013 -1.580471,0.160267 -2.394653,0.242828 -50.24698,5.173147 -107.24739,19.363246 -140.97156,60.177826 -8.26415,10.647505 -14.36504,21.223259 -18.66406,33.949219 -0.4295,1.26928 -0.4295,1.26928 -0.86768,2.56421 -3.58802,11.21176 -4.58417,22.07844 -4.50732,33.81079 -0.008,1.18078 -0.0155,2.36156 -0.0234,3.57812 0.0148,6.74148 0.52323,13.08865 1.84473,19.70313 1.19416,7.57302 1.19416,7.57302 -0.78955,10.54224 -0.56477,0.49782 -1.12954,0.99564 -1.71143,1.50854 -0.62535,0.56606 -1.25071,1.13212 -1.89502,1.71533 -1.01489,0.87375 -1.01489,0.87375 -2.05029,1.76514 -0.6882,0.61601 -1.3764,1.23202 -2.08545,1.8667 -2.00124,1.78767 -4.01919,3.55481 -6.03955,5.3208 -1.71065,1.5391 -3.41938,3.08034 -5.125,4.625 -0.77602,0.69352 -1.55203,1.38703 -2.35156,2.10156 -3.03222,2.73182 -6.02881,5.50057 -9.02344,8.27344 -3.8098,3.52702 -7.63338,7.0351 -11.5,10.5 -4.94865,4.43617 -9.82835,8.94434 -14.70703,13.45703 -4.57118,4.2275 -9.16412,8.43114 -13.75635,12.63574 -2.76319,2.53051 -5.52479,5.06274 -8.28662,7.59473 -1.01562,0.931 -2.03124,1.86199 -3.04687,2.79297 -0.72704,0.66644 -1.45407,1.33289 -2.20313,2.01953 -4.23366,-1.49704 -6.00043,-4.52734 -8.25,-8.1875 -0.38914,-0.62294 -0.77827,-1.24588 -1.1792,-1.8877 -23.42162,-37.98768 -32.79243,-83.42355 -23.04932,-127.33593 9.21846,-38.589248 34.69619,-69.451228 68.09668,-90.137454 2.49481,-1.509895 5.01554,-2.969592 7.55079,-4.4104 1.75069,-0.99533 3.4904,-2.009921 5.22949,-3.025391 C -198.27809,10.238393 -147.003,1.0296678 -99,-2 c 0.826934,-0.056396 1.653867,-0.112793 2.505859,-0.1708984 C -64.422669,-4.3064692 -31.971193,-3.1911065 0,0 Z" /><path
       id="path8-7"
       style="fill:#535355"
       transform="translate(1736,70)"
       d="m 0,0 c 51.153507,-0.08060607 51.153507,-0.08060607 72.716797,-0.09765625 14.843357,-0.01183152 29.686693,-0.02568159 44.530033,-0.05322266 10.81403,-0.0200552 21.62805,-0.032866 32.4421,-0.0372981 5.71571,-0.002587 11.43137,-0.008584 17.14707,-0.0232831 41.12047,-0.10125553 41.12047,-0.10125553 55.91034,1.03616714 1.3636,0.1039977 1.3636,0.1039977 2.75474,0.21009637 C 243.10225,2.7064973 257.0354,9.076814 269,22 c 10.14881,12.553547 11.15884,29.619555 11.11353,45.095459 1.4e-4,1.308001 2.9e-4,2.616001 4.4e-4,3.963638 2.8e-4,3.569734 -0.006,7.139433 -0.0126,10.709159 -0.006,3.736919 -0.007,7.473839 -0.008,11.210763 -0.003,7.068801 -0.0113,14.137591 -0.0213,21.206381 -0.0112,8.05079 -0.0167,16.10159 -0.0217,24.15239 -0.0104,16.55408 -0.0288,33.10814 -0.0503,49.66221 -14.19,0 -28.38,0 -43,0 -0.009,-3.74884 -0.0187,-7.49767 -0.0283,-11.36011 -0.0338,-12.41724 -0.0892,-24.83431 -0.15558,-37.25141 -0.0397,-7.52492 -0.0721,-15.04974 -0.0871,-22.57476 -0.0131,-6.56426 -0.0402,-13.12829 -0.0836,-19.692417 -0.0225,-3.470776 -0.0383,-6.941271 -0.0373,-10.412126 8.9e-4,-3.889212 -0.0296,-7.777859 -0.0622,-11.666941 0.005,-1.131454 0.0101,-2.262909 0.0152,-3.42865 C 236.43225,61.626432 234.62845,50.833624 228,43 211.51584,26.986814 177.82485,32.414531 160,32 c 0,51.81 0,103.62 0,157 -14.19,0 -28.38,0 -43,0 0,-51.81 0,-103.62 0,-157 -24.42,0 -48.84,0 -74,0 0,51.81 0,103.62 0,157 -14.19,0 -28.38,0 -43,0 C 0,126.63 0,64.26 0,0 Z" /><path
       id="path10-5"
       transform="matrix(9.3952706,0,0,9.4225379,-289.25339,-290.1021)"
       d="m 261.4082,38.195312 c -0.27472,0.0012 -0.54949,0.0016 -0.82422,0.002 -0.72463,5.46e-4 -1.44919,0.0015 -2.17382,0.0039 -0.74912,0.0024 -1.49893,0.0048 -2.24805,0.0059 -1.61284,0.0023 -3.22506,0.0049 -4.83789,0.0098 v 3.396484 c 1.51036,0.01095 3.0209,0.0231 4.53125,0.03516 0.73463,0.0059 1.46849,0.01037 2.20312,0.01562 0.64495,0.0046 1.29061,0.01037 1.93555,0.01563 0.27336,0.0023 0.54695,0.0037 0.82031,0.0059 0.39334,0.0026 0.78636,0.0064 1.17969,0.0098 l 0.36133,0.002 c 1.15494,0.0063 2.28515,0.05021 3.32422,0.613281 0.54429,0.622525 0.70049,1.442687 0.80273,2.242187 l 0.0352,0.310547 c 0.0458,0.36688 0.0909,0.734223 0.13281,1.101563 -1.07691,-0.0045 -2.15356,-0.0075 -3.23047,-0.0098 -0.55164,-0.0011 -1.10266,-0.0037 -1.6543,-0.0059 -0.53768,-0.0024 -1.07558,-0.0031 -1.61328,-0.0039 -0.2071,-2.12e-4 -0.41398,-0.0016 -0.62109,-0.002 -2.16211,-0.01244 -4.81596,-0.141267 -6.68945,1.111329 -1.34018,1.020659 -2.05846,2.391009 -2.32813,4.039062 -0.19769,1.830722 0.0604,3.49312 1.23633,4.953125 1.31001,1.38427 2.86569,1.95052 4.73633,2.107422 l 0.34179,0.02539 c 1.40008,0.105393 2.79375,0.122812 4.19727,0.117187 0.34917,-0.0014 0.69966,-0.0016 1.04883,-0.002 0.662,-4.67e-4 1.32433,-0.0018 1.98633,-0.0039 0.75781,-0.0025 1.51562,-0.0028 2.27343,-0.0039 1.6314,-0.0023 3.26119,-0.0067 4.89258,-0.01172 0.007,-1.718729 0.0143,-3.43751 0.0176,-5.15625 0.002,-0.837262 0.002,-1.674463 0.006,-2.511719 0.003,-0.733989 0.007,-1.467175 0.008,-2.201172 3.9e-4,-0.389647 -8e-5,-0.780279 0.002,-1.169922 0.0153,-2.501058 0.26674,-5.323517 -1.5293,-7.314453 -1.93155,-1.752945 -1.93088,-1.752376 -8.32227,-1.726563 z m -2.32226,11.046876 h 0.25 c 0.26951,7.3e-5 0.53908,0.0011 0.80859,0.002 0.18761,1.98e-4 0.37489,-1.06e-4 0.5625,0 0.49239,4.04e-4 0.98418,0.0027 1.47656,0.0039 0.59153,0.0013 1.18386,0.0013 1.77539,0.002 0.8974,0.001 1.79401,0.0021 2.69141,0.0039 v 5.625 c -2.00787,0.01277 -2.00776,0.01285 -2.87305,0.01563 -0.58715,0.0019 -1.17458,0.0035 -1.76172,0.0078 -0.47412,0.0035 -0.94774,0.007 -1.42187,0.0078 -0.1796,5.84e-4 -0.35947,2.16e-4 -0.53906,0.002 -3.10458,0.0288 -3.10453,0.02868 -4.1543,-0.882812 -0.53623,-0.548751 -0.66919,-1.12999 -0.67773,-1.882813 0.0154,-0.854216 0.16332,-1.579967 0.79101,-2.195312 0.83427,-0.634647 2.06092,-0.71404 3.07227,-0.708984 z"
       style="fill:#535355;stroke-width:0.10628241" /><path
       id="path12-3"
       style="fill:#97c03c"
       transform="translate(291.33594,355.86328)"
       d="M 0,0 C 1.198103,0.57911133 1.198103,0.57911133 2.4204102,1.1699219 3.2845654,1.5920898 4.1487207,2.0142578 5.0390625,2.4492188 75.988688,35.674646 158.8581,48.09839 310.75391,37.652344 c 8.30658,-1.471771 12.32412,0.426515 19.03515,5.039062 1.29684,0.863365 1.29684,0.863365 2.61988,1.744171 2.76204,1.843816 5.50855,3.709381 8.25512,5.576142 1.81542,1.217622 3.63182,2.433782 5.44922,3.648437 3.53319,2.364819 7.06045,4.73805 10.58203,7.120117 4.58139,3.098432 9.17729,6.174485 13.78125,9.239258 0.63462,0.422561 1.26925,0.845122 1.9231,1.280487 1.42121,0.945954 2.84276,1.891396 4.2644,2.836701 -1,3 -1,3 -2.93579,4.055664 -1.27122,0.47518 -1.27122,0.47518 -2.56811,0.959961 -0.9556,0.360534 -1.9112,0.721069 -2.89576,1.092529 -1.04373,0.376809 -2.08747,0.753618 -3.16284,1.141846 -1.08047,0.3955 -2.16095,0.791001 -3.27417,1.198486 C 281.68713,111.42966 192.63572,112.9866 -80.972656,52.621094 -94.620514,46.177214 -108.05909,39.312501 -121.33594,32.136719 c 0,-0.99 0,-1.98 0,-3 10.20757,-2.992163 20.41544,-5.983269 30.623679,-8.973137 4.743423,-1.389324 9.486751,-2.778972 14.229839,-4.169441 1.8457,-0.541027 3.691403,-1.082043 5.53711,-1.623047 0.908852,-0.266423 1.817704,-0.532846 2.754096,-0.807343 4.530492,-1.327527 9.061703,-2.652513 13.594414,-3.9724424 0.879043,-0.2559897 1.758085,-0.5119794 2.663765,-0.7757263 1.736439,-0.5056472 3.472904,-1.011203 5.209397,-1.5166626 4.673869,-1.3627567 9.342034,-2.7425463 14.003948,-4.1456528 1.990743,-0.5980317 3.983091,-1.1903226 5.976223,-1.7803421 2.340941,-0.69417298 4.678863,-1.39865281 7.012817,-2.11596679 C -12.491301,-2.8694608 -6.9617979,-3.479237 0,0 Z" /><path
       id="path14-5"
       transform="matrix(9.3952706,0,0,9.4225379,-289.25339,-290.1021)"
       d="m 165.40039,38.289062 c -0.38181,0.0023 -0.76272,0.0035 -1.14453,0.0039 -0.72277,7.04e-4 -1.44521,0.0027 -2.16797,0.0059 -0.82811,0.0037 -1.65626,0.0062 -2.48437,0.0078 -1.78305,0.0034 -3.56657,0.0084 -5.34961,0.01563 v 3.291015 c 1.40433,0.0083 2.80857,0.0171 4.21289,0.02734 0.78853,0.0058 1.57669,0.01115 2.36523,0.01563 0.62986,0.0035 1.25883,0.0088 1.88867,0.01367 0.26783,0.0022 0.53686,0.0039 0.80469,0.0059 0.38354,0.0018 0.76686,0.0026 1.15039,0.0059 l 0.35547,0.0039 c 1.14336,0.0024 2.33677,0.05401 3.37891,0.564453 0.73234,0.665319 0.84215,1.522919 0.93945,2.46875 l 0.0273,0.275391 c 0.033,0.323188 0.0656,0.647429 0.0977,0.970703 -1.02078,-0.0022 -2.04172,-0.0047 -3.0625,-0.0059 -0.52235,-5.32e-4 -1.04601,-8.58e-4 -1.56836,-0.002 -0.5097,-0.0012 -1.01765,-0.0016 -1.52734,-0.002 -0.19579,-1.06e-4 -0.39211,2.02e-4 -0.58789,0 -1.47228,-0.0044 -2.95677,-0.02518 -4.41407,0.216797 l -0.20898,0.03711 c -1.25059,0.22962 -2.2248,0.662858 -3.18359,1.507813 -0.8753,0.916745 -1.47142,2.367389 -1.53321,3.617187 -0.051,1.838712 0.0625,3.523025 1.39258,4.933594 2.1869,2.054387 2.18743,2.054328 8.6875,2.029297 0.36231,-0.0016 0.72558,-0.0016 1.08789,-0.002 0.68644,-4.67e-4 1.37216,-0.0018 2.05859,-0.0039 0.7861,-0.0025 1.57132,-0.0028 2.35743,-0.0039 1.69242,-0.0023 3.3857,-0.0067 5.07812,-0.01172 0.005,-1.812196 0.008,-3.6253 0.01,-5.4375 0.001,-0.881898 0.003,-1.762637 0.006,-2.644532 0.002,-0.773859 0.003,-1.548403 0.004,-2.322265 2.6e-4,-0.409764 6.1e-4,-0.818754 0.002,-1.228516 0.001,-0.390435 0.002,-0.781437 0.002,-1.171875 -1.2e-4,-0.14554 -6e-5,-0.290007 0,-0.435547 0.003,-0.504549 0.003,-1.007777 -0.0234,-1.511718 -0.15876,-1.371017 -0.49524,-2.764815 -1.60351,-3.707032 l -0.3125,-0.21875 c -1.75933,-1.336559 -1.75951,-1.337947 -6.73438,-1.308594 z m -3.28516,10.953126 h 0.24219 c 0.26203,7.3e-5 0.52508,0.0011 0.78711,0.002 0.18268,1.98e-4 0.36419,-1.06e-4 0.54688,0 0.47891,4.03e-4 0.95858,0.0027 1.4375,0.0039 0.57563,0.0013 1.15092,0.0013 1.72656,0.002 0.87279,0.001 1.74635,0.0021 2.61914,0.0039 v 5.625 c -2.03871,0.01277 -2.03853,0.01285 -2.91602,0.01563 -0.5958,0.0019 -1.19327,0.0035 -1.78906,0.0078 -0.48102,0.0035 -0.96037,0.007 -1.44141,0.0078 -0.18236,5.84e-4 -0.36647,2.18e-4 -0.54882,0.002 -2.85999,0.02611 -2.8586,0.02729 -3.97266,-0.802734 -0.42773,-0.418982 -0.66273,-0.971947 -0.7207,-1.564453 l -0.0215,-0.203125 c -0.0429,-0.779093 0.13957,-1.524564 0.62305,-2.148438 0.89578,-0.869347 2.23425,-0.957329 3.42773,-0.951171 z"
       style="display:inline;fill:#545455;stroke-width:0.10628241" /><path
       id="path16-6"
       style="fill:#545455"
       transform="translate(1023.3246,69.975708)"
       d="M 0,0 C 0.78320932,-0.00261589 1.5664186,-0.00523178 2.3733616,-0.00792694 23.952396,0.29409154 47.467748,3.9870607 63.495697,19.594604 c 13.332415,14.861581 16.526297,34.294637 16.406738,53.63379 2.92e-4,1.259962 5.84e-4,2.519925 8.85e-4,3.818069 5.68e-4,3.414529 -0.01109,6.828914 -0.02515,10.243409 -0.01261,3.583402 -0.01369,7.166808 -0.01605,10.750228 -0.0062,6.76762 -0.02256,13.53518 -0.0427,20.30278 -0.02245,7.71233 -0.03338,15.42467 -0.04339,23.13703 -0.02084,15.84817 -0.05748,31.69625 -0.100647,47.54438 -14.19,0 -28.38,0 -43,0 -0.02187,-5.44149 -0.02187,-5.44149 -0.04419,-10.99292 -0.05045,-12.01809 -0.11692,-24.03604 -0.191525,-36.05399 -0.04482,-7.28277 -0.08427,-14.56549 -0.110721,-21.84835 -0.02309,-6.35328 -0.05661,-12.70641 -0.102266,-19.05957 -0.02379,-3.358986 -0.04105,-6.717689 -0.04891,-10.076775 -0.0097,-3.764672 -0.03782,-7.528806 -0.07001,-11.293344 0.0014,-1.094052 0.0029,-2.188103 0.0043,-3.315308 C 35.956553,63.42682 33.657228,50.577921 24.112885,41.211792 c -19.5191051,-15.933209 -67.854564,-8.953311 -81.4375,-9.1875 0,51.81 0,103.619998 0,156.999998 -14.52,0 -29.04,0 -44.000005,0 0,-62.04 0,-124.079998 0,-187.999998 15.633755,-0.16500001 31.267505,-0.33000001 47.375005,-0.50000001 7.381252,-0.0783105 7.381252,-0.0783105 14.911621,-0.15820312 6.048584,-0.0634766 6.048584,-0.0634766 8.887848,-0.0931397 1.966229,-0.0206406 3.932456,-0.0414866 5.898681,-0.0625 2.993027,-0.0319459 5.98606,-0.0632223 8.979096,-0.0943604 0.863381,-0.009368 1.726763,-0.01873673 2.616308,-0.02838898 C -8.4374259,0.04449412 -4.2188415,0.01313428 0,0 Z" /><path
       id="path18-2"
       style="fill:#545455"
       transform="translate(2566,71)"
       d="m 0,0 c 7.2400354,-0.25459947 14.478909,-0.42909627 21.722412,-0.54931641 2.461051,-0.0501364 4.921806,-0.11826702 7.381836,-0.20507812 C 50.698441,-1.4970635 50.698441,-1.4970635 55.532227,2.1013184 57.829185,4.6401489 59.387914,6.9938732 61,10 c 1.264922,1.625339 2.553723,3.232633 3.875,4.8125 0.970664,1.231699 0.970664,1.231699 1.960937,2.488281 2.498426,3.116267 5.073526,6.15952 7.664063,9.199219 3.889785,4.567681 7.677488,9.19847 11.402344,13.902344 2.502033,3.098421 5.076567,6.129719 7.660156,9.160156 C 97.855384,54.599335 102.00421,59.72228 106,65 c 3.71564,-1.238545 4.59459,-2.690172 7,-5.75 0.79406,-0.995156 1.58813,-1.990313 2.40625,-3.015625 0.42152,-0.52916 0.84305,-1.05832 1.27734,-1.603516 2.22199,-2.75276 4.52126,-5.439082 6.81641,-8.130859 4.04982,-4.766956 8.04157,-9.576011 11.99219,-14.425781 3.13757,-3.846218 6.29041,-7.679707 9.44531,-11.511719 0.5489,-0.667412 1.0978,-1.334824 1.66333,-2.022461 1.14921,-1.395716 2.32004,-2.773822 3.50854,-4.13623 2.01905,-2.432854 2.01905,-2.432854 3.64063,-5.5849613 2.91831,-4.6882581 5.27277,-8.11455917 10.8558,-9.43527226 C 172.43423,-1.512642 180.2727,-1.0904733 188.125,-0.75 c 2.41133,0.0602508 4.8228,0.11499347 7.23437,0.1640625 C 201.24275,-0.45427905 207.1207,-0.25403127 213,0 c -1.86237,3.9706707 -4.43866,7.0357113 -7.3125,10.3125 -0.52763,0.608115 -1.05526,1.21623 -1.59888,1.842773 -1.12064,1.291006 -2.243,2.580521 -3.36694,3.868653 -1.70257,1.954137 -3.39697,3.915043 -5.08887,5.878418 -4.74199,5.498152 -9.49636,10.976815 -14.38281,16.347656 -2.98863,3.29293 -5.83384,6.663168 -8.625,10.125 -3.68137,4.553607 -7.55274,8.860825 -11.53857,13.144043 -3.77255,4.078036 -7.26904,8.339576 -10.74659,12.672363 -3.09627,3.716559 -6.37377,7.249164 -9.71093,10.75 C 138.2491,87.473411 136.33486,89.773458 135,93 c 4.79727,6.045039 9.72609,11.87057 15,17.5 4.45881,4.76083 8.63798,9.66468 12.72266,14.75391 2.4956,3.00928 5.11497,5.88549 7.77734,8.74609 3.45162,3.70862 6.76522,7.48506 9.9375,11.4375 3.36597,4.18488 6.8943,8.1456 10.5625,12.0625 4.48909,4.7942 8.71703,9.7226 12.82031,14.85547 3.01977,3.66376 6.25867,7.10889 9.52735,10.55078 C 215,185 215,185 215,188 c -7.0976,0.25464 -14.19402,0.42911 -21.29517,0.54932 -2.41255,0.0501 -4.82481,0.11825 -7.23632,0.20507 -21.16206,0.74253 -21.16206,0.74253 -25.95191,-2.83813 C 158.22956,183.387 156.60737,180.99603 155,178 c -0.81211,-0.96551 -1.62422,-1.93102 -2.46094,-2.92578 -0.63164,-0.78762 -1.26328,-1.57524 -1.91406,-2.38672 -3.32518,-4.10724 -6.70163,-8.16234 -10.125,-12.1875 -4.11887,-4.84661 -8.16601,-9.74531 -12.17969,-14.67969 -2.6146,-3.17801 -5.27672,-6.31266 -7.94531,-9.44531 C 116.10456,131.35833 111.97767,126.25378 108,121 c -4.28284,1.57576 -6.68508,4.8382 -9.5,8.25 -1.07274,1.27619 -2.145661,2.55223 -3.21875,3.82812 -0.545273,0.65292 -1.090547,1.30583 -1.652344,1.97852 C 91.111627,138.05987 88.555195,141.02904 86,144 c -1.000215,1.16648 -2.000214,2.33315 -3,3.5 -2,2.33333 -4,4.66667 -6,7 -0.495322,0.5779 -0.990645,1.15581 -1.500977,1.75122 -0.996637,1.16269 -1.993381,2.32529 -2.990234,3.48779 -2.552344,2.97676 -5.102622,5.95526 -7.649414,8.93677 -0.520781,0.60908 -1.041562,1.21817 -1.578125,1.8457 -0.974671,1.14002 -1.9487,2.28059 -2.921875,3.42188 -0.902783,1.05538 -1.814978,2.1028 -2.737244,3.1412 -1.679899,1.93123 -1.679899,1.93123 -3.251587,4.19013 -4.779086,6.24926 -4.779086,6.24926 -9.014892,7.51631 -3.062619,0.24762 -6.004847,0.22339 -9.074402,0.0879 -1.647724,-0.0191 -1.647724,-0.0191 -3.328735,-0.0386 -3.486479,-0.0501 -6.967628,-0.16299 -10.452515,-0.27782 -2.37232,-0.0452 -4.744723,-0.0862 -7.117187,-0.12305 C 9.5867428,188.34057 3.7937522,188.19025 -2,188 c 0.8776748,-4.53424 3.5065869,-7.25587 6.5,-10.625 0.8136804,-0.9326 0.8136804,-0.9326 1.6437988,-1.88403 3.8559025,-4.40586 7.7857632,-8.74411 11.7233882,-13.07691 2.225809,-2.51932 4.338921,-5.10678 6.445313,-7.72656 3.890707,-4.81416 8.017505,-9.33674 12.245361,-13.85083 3.117386,-3.34731 6.077731,-6.76654 8.942139,-10.33667 3.343028,-4.16667 6.851223,-8.10412 10.5,-12 4.527875,-4.83645 8.801239,-9.80943 12.953125,-14.97656 C 71.86978,99.927714 74.920179,96.456134 78,93 76.402073,89.137581 73.778512,86.417806 70.9375,83.4375 67.348877,79.605342 63.903554,75.730796 60.625,71.625 56.573983,66.586638 52.227764,61.896952 47.799561,57.194092 43.757458,52.877908 40.004119,48.395055 36.308594,43.777344 33.647205,40.575572 30.845378,37.537651 28,34.5 23.570879,29.771211 19.420836,24.904576 15.375,19.839844 12.054754,15.869747 8.504716,12.123377 4.8964844,8.4140625 2.270569,5.653926 0.71691295,3.7362579 0,0 Z" /><path
       id="path20-9"
       style="display:inline;fill:#545455"
       transform="translate(2337,2)"
       d="m 0,0 c 13.86,0 27.72,0 42,0 0,22.77 0,45.54 0,69 20.13,0 40.26,0 61,0 0,10.23 0,20.46 0,31 -19.8,0 -39.6,0 -60,0 -0.05826,17.40722 -0.05826,17.40722 -0.09766,34.81445 -0.01191,7.10982 -0.02593,14.21958 -0.05322,21.32935 -0.02189,5.73829 -0.03372,11.47652 -0.03887,17.21484 -0.0037,2.17861 -0.01083,4.35723 -0.02171,6.53582 C 41.396961,201.29564 41.396961,201.29564 49,220 c 1.838301,1.16375 1.838301,1.16375 3.8125,1.75 0.625195,0.22172 1.250391,0.44344 1.894531,0.67187 6.112276,1.54109 12.244122,1.7664 18.507813,1.89454 0.855741,0.0208 1.711482,0.0416 2.593155,0.063 2.709759,0.0649 5.419607,0.12411 8.129501,0.18312 1.847014,0.0432 3.69402,0.0869 5.541016,0.13086 4.507071,0.10726 9.014219,0.20676 13.521484,0.30664 0,10.23 0,20.46 0,31 -7.869518,0.0421 -15.738621,0.0822 -23.608154,0.1035 -3.665822,0.0105 -7.331548,0.0245 -10.997315,0.0474 -3.540249,0.022 -7.080407,0.0337 -10.62072,0.0389 -1.987154,0.005 -3.974273,0.021 -5.961372,0.0368 -15.618527,0.002 -29.018246,-1.74102 -40.617126,-12.86722 -7.3341792,-7.88228 -10.37516627,-17.28954 -11.38427784,-27.87036 -0.0802108,-0.80875 -0.16042157,-1.61751 -0.24306298,-2.45078 -0.96482698,-10.93852 -0.70629568,-21.89505 -0.54453468,-32.86245 0.0262405,-2.32696 0.0515013,-4.65393 0.0758362,-6.98091 0.0659329,-6.05798 0.14497252,-12.11572 0.22695923,-18.17351 0.0816304,-6.2082 0.15056534,-12.41654 0.22064209,-18.62488 C -0.31434662,124.26415 -0.1605132,112.13207 0,100 c -13.2,0 -26.4,0 -40,0 0,-10.23 0,-20.46 0,-31 13.291428,-1.107619 26.662501,-1 40,-1 C 0,45.56 0,23.12 0,0 Z" /><path
       id="path22"
       style="display:inline;fill:#545455"
       transform="translate(1547,70)"
       d="m 0,0 c 14.85,0 29.7,0 45,0 -0.868035,5.2082071 -1.707871,7.8562681 -4.078125,12.363281 -0.318454,0.611786 -0.636908,1.223572 -0.965012,1.853897 -0.69484,1.332498 -1.393492,2.663013 -2.095504,3.991745 -1.13832,2.154608 -2.266818,4.314108 -3.392853,6.475159 -1.210823,2.323543 -2.422261,4.646744 -3.636612,6.968445 -4.365477,8.34847 -8.655196,16.735247 -12.941666,25.124481 -2.229248,4.362013 -4.462058,8.722201 -6.694915,13.082367 -0.43881,0.85697 -0.87762,1.71394 -1.3297277,2.596878 -4.664025,9.106449 -9.34402121,18.20466 -14.0259247,27.301926 -5.5531164,10.790411 -11.0952166,21.586411 -16.6304936,32.385991 -3.321742,6.48022 -6.645519,12.95941 -9.969299,19.43859 -1.253737,2.44428 -2.507071,4.88876 -3.760376,7.33326 -2.009571,3.919 -4.021216,7.83693 -6.034393,11.75408 -0.750456,1.46096 -1.500241,2.92226 -2.249329,4.38392 -1.025712,2.00114 -2.053784,4.00106 -3.082489,6.00067 -0.579675,1.12906 -1.15935,2.25811 -1.756592,3.42138 C -49,187 -49,187 -50,188 c -2.66626,0.0885 -5.306471,0.11525 -7.972656,0.0977 -0.797643,-0.001 -1.595286,-0.003 -2.417099,-0.004 -2.557619,-0.006 -5.115152,-0.0182 -7.672745,-0.0309 -1.729816,-0.005 -3.459634,-0.01 -5.189453,-0.0137 -4.249383,-0.0111 -8.4987,-0.0283 -12.748047,-0.0488 -7.679655,-15.82707 -15.35693,-31.65523 -23,-47.5 -4.98751,-10.33942 -9.98933,-20.67179 -15,-31 -5.58292,-11.507761 -11.15182,-23.022138 -16.70874,-34.54248 -3.75986,-7.792193 -7.52989,-15.579381 -11.30688,-23.363282 -1.35388,-2.790199 -2.70675,-5.580885 -4.0586,-8.37207 -0.66405,-1.370938 -1.32811,-2.741869 -1.99219,-4.112793 -0.32622,-0.673485 -0.65244,-1.34697 -0.98855,-2.040863 -1.95592,-4.035444 -3.91987,-8.066855 -5.89046,-12.095154 -1.23192,-2.520344 -2.45934,-5.042866 -3.6859,-7.565826 -0.84933,-1.742833 -1.70476,-3.482692 -2.56033,-5.222473 -0.50394,-1.038179 -1.00789,-2.076358 -1.5271,-3.1459965 -0.44279,-0.9054053 -0.88559,-1.8108106 -1.3418,-2.7436523 C -175,4 -175,4 -175,1 c 15.51,0 31.02,0 47,0 9.1804,19.497427 18.23954,39.036731 27.12813,58.668137 3.931704,8.67917 7.900276,17.341483 11.866743,26.004806 3.786654,8.271358 7.562349,16.547437 11.313721,24.834867 0.699868,1.54493 1.399738,3.08985 2.099609,4.63477 1.330634,2.93767 2.658285,5.87667 3.984375,8.8164 0.596902,1.31841 1.193901,2.63677 1.791016,3.95508 0.782018,1.73178 0.782018,1.73178 1.579834,3.49854 1.000245,2.4621 1.000245,2.4621 2.236572,3.5874 0.458866,-0.96317 0.458866,-0.96317 0.927002,-1.9458 5.455244,-11.43865 10.934714,-22.86054 16.635498,-34.1792 4.216227,-8.371931 8.290726,-16.803289 12.312744,-25.27002 3.5693,-7.493565 7.264485,-14.918017 10.997559,-22.331054 3.734807,-7.437745 7.345747,-14.930358 10.896728,-22.45752 C -9.6402325,19.127522 -4.799639,9.599278 0,0 Z" /><path
       id="path24-1"
       transform="matrix(9.3952706,0,0,9.4225379,-289.25339,-290.1021)"
       d="m 264.2793,72.476562 c -1.39631,-0.01366 -2.99667,0.196403 -3.88868,1.41211 l -0.12695,0.199219 c -0.54286,0.820442 -0.48902,1.708482 -0.42578,2.654297 0.16948,0.939399 0.74796,1.521887 1.49023,2.076171 l 0.2129,0.152344 -0.2129,0.105469 c -0.40867,0.267569 -0.78839,0.520649 -0.92578,1.005859 -0.0211,0.479577 0.0327,0.80784 0.3418,1.183594 l 0.26563,0.251953 c -0.76137,0.346286 -1.31327,0.729518 -1.85547,1.367188 -0.33876,0.643653 -0.28814,1.744338 -0.0781,2.425781 0.40366,0.784577 1.00195,1.230884 1.79688,1.591797 1.71186,0.650732 3.84383,0.694974 5.56445,0.02734 0.83501,-0.409631 1.44759,-0.835912 1.78906,-1.72461 0.21603,-0.719236 0.25211,-1.535578 -0.0957,-2.216797 l -0.15039,-0.236328 -0.14258,-0.234375 c -0.63723,-0.711352 -1.36914,-0.980306 -2.28516,-1.193359 -0.91123,-0.197856 -2.06609,-0.305067 -2.83984,-0.867188 -0.10222,-0.206677 -0.10321,-0.207944 -0.10742,-0.425781 0.19913,-0.233171 0.20005,-0.232748 0.49609,-0.291016 0.98037,-0.205734 2.03746,-0.363652 2.92774,-0.845703 0.71212,-0.491929 1.16811,-1.212207 1.36718,-2.046875 0.0691,-0.797068 0.0625,-1.468311 -0.38086,-2.148437 l -0.25781,-0.398438 1.59571,-0.105469 V 72.49609 c -0.61673,-0.0044 -1.23288,-0.0074 -1.84961,-0.0098 -0.25251,-8.68e-4 -0.50531,-0.0028 -0.75782,-0.0039 -0.37084,-0.0027 -0.74242,-0.0047 -1.11328,-0.0059 z m -0.78321,1.886719 c 0.23613,-0.0062 0.47799,0.01971 0.70703,0.04297 0.53244,0.260617 0.90368,0.637011 1.16993,1.167969 0.0477,0.561428 0.0259,0.951325 -0.28516,1.429687 -0.34153,0.39463 -0.75002,0.548688 -1.24414,0.685547 -0.58594,0.01007 -1.08019,-0.09888 -1.54297,-0.472656 -0.38446,-0.40817 -0.55716,-0.749694 -0.54687,-1.324219 0.18342,-0.651545 0.52932,-0.995753 1.06445,-1.378906 0.21014,-0.104768 0.44161,-0.144235 0.67773,-0.150392 z m -0.23828,8.451172 c 0.19849,0.004 0.4006,0.02098 0.61133,0.04883 l 0.22656,0.03125 c 0.75179,0.110077 1.392,0.282864 1.92969,0.837891 0.19957,0.331651 0.19959,0.331231 0.21289,0.65625 -0.17458,0.454537 -0.40336,0.730486 -0.85547,0.935547 -0.61721,0.215077 -1.16696,0.274618 -1.81836,0.265625 l -0.27148,0.0039 c -0.67012,-0.0031 -1.37942,-0.07729 -1.92774,-0.496094 -0.26293,-0.276594 -0.35509,-0.500164 -0.42187,-0.873047 0.0811,-0.452924 0.2484,-0.721166 0.59766,-1.009765 0.56925,-0.304826 1.12132,-0.412437 1.71679,-0.400391 z"
       style="fill:#545455;stroke-width:0.10628241" /><path
       id="path26"
       transform="matrix(9.3952706,0,0,9.4225379,-289.25339,-290.1021)"
       d="m 286.66016,67.507812 v 5.095704 c -0.73104,-0.218678 -1.13638,-0.356133 -1.84961,-0.351563 l -0.25782,0.0059 c -1.36452,0.0086 -2.49526,0.379522 -3.5332,1.300782 -0.97526,0.995055 -1.38256,2.354142 -1.41797,3.726562 0.0559,1.421498 0.38575,2.768645 1.40235,3.8125 1.39502,1.269811 1.39409,1.269532 7.78515,1.269532 V 67.507812 Z m -1.69922,6.636719 c 0.56208,0.03649 1.125,0.22014 1.69922,0.47461 V 80.5625 c -3.23541,0 -3.23502,-5.93e-4 -3.97852,-0.646484 -0.79545,-0.93875 -0.89892,-1.989277 -0.81055,-3.173828 0.19627,-0.930152 0.63629,-1.620993 1.39844,-2.1875 0.56764,-0.33659 1.12933,-0.446647 1.69141,-0.410157 z"
       style="fill:#535356;stroke-width:0.10628241" /><path
       id="path28-2"
       style="fill:#545455"
       transform="translate(2485,70)"
       d="m 0,0 c 14.19,0 28.38,0 43,0 0,62.04 0,124.08 0,188 -14.19,0 -28.38,0 -43,0 C 0,125.96 0,63.92 0,0 Z" /><path
       id="path30-7"
       style="fill:#545455"
       transform="translate(1629,70)"
       d="m 0,0 c 14.19,0 28.38,0 43,0 0,62.04 0,124.08 0,188 -14.19,0 -28.38,0 -43,0 C 0,125.96 0,63.92 0,0 Z" /><path
       id="path32-0"
       transform="matrix(9.3952706,0,0,9.4225379,-289.25339,-290.1021)"
       d="m 150.74023,67.507812 v 14.859376 h 2.44922 v -6.369141 c 1.79036,0 3.99855,0.307373 5.57813,-0.818359 1.03508,-0.866674 1.55938,-1.827897 1.68554,-3.175782 0.0329,-1.228012 -0.27803,-2.341794 -1.11718,-3.257812 -1.30531,-1.237475 -1.30668,-1.238282 -8.59571,-1.238282 z m 4.35743,1.994141 c 1.42433,0.0069 1.59061,0.131486 2.25,0.626953 0.45827,0.450261 0.60467,0.946905 0.67187,1.572266 -0.0804,0.748214 -0.30206,1.259324 -0.89258,1.75 -0.55914,0.380751 -0.97897,0.43859 -1.65039,0.435547 -0.11995,-2.66e-4 -0.23969,2.76e-4 -0.36328,0 -0.22757,-0.0014 -0.22877,-0.0024 -0.46094,-0.0039 l -1.46289,-0.0059 v -4.351562 c 0.81963,-0.01426 1.43343,-0.02574 1.90821,-0.02344 z"
       style="fill:#535355;stroke-width:0.10628241" /><path
       id="path34"
       transform="matrix(9.3952706,0,0,9.4225379,-289.25339,-290.1021)"
       d="m 174.9375,72.458984 -0.31445,0.0039 c -1.53015,-0.005 -2.73091,0.335292 -3.86719,1.402343 -1.01541,1.045509 -1.49784,2.244681 -1.51563,3.699219 0.0308,1.371679 0.478,2.592855 1.45508,3.583985 1.12039,0.970451 2.4329,1.456426 3.91797,1.425781 1.62308,-0.06519 3.09272,-0.509205 4.24024,-1.720703 l 0.19921,-0.291016 c 0.57314,-0.797027 0.85619,-1.569101 0.95899,-2.546875 0.0361,-1.502851 -0.27795,-2.85397 -1.31641,-3.990234 -1.08413,-1.008592 -2.26351,-1.567397 -3.75781,-1.566407 z m -0.47656,1.910157 c 0.62222,-0.01975 1.24874,0.133481 1.82422,0.46289 0.77202,0.550038 1.3005,1.175183 1.49023,2.121094 0.10174,0.897635 -0.0627,1.741942 -0.60937,2.476563 -0.60499,0.648986 -1.37428,1.064382 -2.26563,1.154296 -1.03654,0.02288 -1.90083,-0.258381 -2.6582,-0.976562 -0.64921,-0.71651 -0.79954,-1.484732 -0.7793,-2.435547 0.0914,-0.903357 0.52364,-1.640016 1.20508,-2.234375 0.55447,-0.356523 1.17074,-0.548606 1.79297,-0.568359 z"
       style="fill:#545455;stroke-width:0.10628241" /><path
       id="path36"
       style="fill:#545455"
       transform="translate(1948,395)"
       d="M 0,0 C 4.0669089,2.930682 7.471338,6.4560624 11,10 11.873984,9.1124805 11.873984,9.1124805 12.765625,8.2070313 21.144731,0.1309434 28.835953,-4.1825911 40.625,-4.5625 c 8.862704,0.3530597 15.21321,2.219492 21.75,8.3125 9.552547,10.39995 9.919928,22.217152 9.820312,35.6875 -0.0037,1.490721 -0.0066,2.981444 -0.0086,4.472168 -0.0076,3.899505 -0.0272,7.798858 -0.04941,11.698303 -0.02056,3.988728 -0.02961,7.977482 -0.03967,11.966248 C 72.076288,75.382889 72.041145,83.191404 72,91 c -6.6,0 -13.2,0 -20,0 -0.01458,-1.83627 -0.02916,-3.672539 -0.04419,-5.564453 -0.0518,-6.090978 -0.117131,-12.181696 -0.191526,-18.272438 -0.04458,-3.690089 -0.08387,-7.380071 -0.110721,-11.070336 -0.02615,-3.566382 -0.06664,-7.132348 -0.11675,-10.698471 -0.02462,-2.011587 -0.03468,-4.023335 -0.04446,-6.035049 C 51.361384,31.150041 50.996873,24.725843 45.6875,18.125 41.460726,14.782899 38.510995,13.951258 33.125,14.125 26.048211,15.288678 20.6407,18.55742 16,24 c -0.75484,3.193603 -0.75484,3.193603 -0.659424,6.718018 -0.01048,0.654219 -0.02097,1.308438 -0.03177,1.982482 -0.02865,2.148499 -0.02247,4.295377 -0.01584,6.444031 -0.01312,1.495031 -0.02843,2.990044 -0.04582,4.485031 -0.03982,3.924234 -0.05004,7.848004 -0.05403,11.772416 -0.0093,4.008728 -0.04676,8.017185 -0.08179,12.025756 C 15.046788,75.285208 15.016115,83.142278 15,91 8.07,91 1.14,91 -6,91 -6.0145825,89.138674 -6.029165,87.277349 -6.0441894,85.359619 -6.0960245,79.18084 -6.161359,73.002317 -6.2357149,66.82377 -6.2802706,63.081022 -6.3195582,59.338379 -6.3464355,55.595459 -6.3726177,51.977206 -6.4131224,48.35936 -6.4631863,44.741362 -6.479755,43.367264 -6.4913311,41.993097 -6.4976139,40.618914 -6.3155581,27.488722 -6.3155581,27.488722 -12.5,16.5 -17.513735,13.491759 -22.300135,13.398677 -28,14 c -3.000924,0.922955 -5.473638,2.140041 -8,4 -1.014331,0.705762 -2.028662,1.411523 -3.07373,2.138672 -4.941087,5.034642 -3.775516,12.52041 -3.730957,19.103515 -0.01126,1.493603 -0.02514,2.987189 -0.04153,4.480744 -0.03597,3.916122 -0.03642,7.831462 -0.02933,11.747711 9.14e-4,4.002115 -0.03197,8.003939 -0.06195,12.00592 C -42.991296,75.317883 -43.004426,83.158496 -43,91 c -6.93,0 -13.86,0 -21,0 0,-30.69 0,-61.38 0,-93 6.93,0 13.86,0 21,0 0.33,2.64 0.66,5.28 1,8 0.629063,-0.4705078 1.258125,-0.9410156 1.90625,-1.4257813 C -27.812142,-4.359541 -14.132692,-8.2419635 0,0 Z" /><path
       id="path38"
       style="fill:#97c03c"
       transform="translate(539,83)"
       d="m 0,0 c 3.6699564,0.6258424 6.8666866,1.643003 10.296875,3.0820313 1.028269,0.4310302 2.056538,0.8620605 3.115967,1.3061523 C 14.514104,4.858208 15.615366,5.3282324 16.75,5.8125 17.900891,6.3031494 19.051782,6.7937988 20.237549,7.2993164 52.602879,21.231047 83.709687,37.894798 112,59 c 0.81477,0.606423 0.81477,0.606423 1.646,1.225098 19.52339,14.603472 38.94226,30.915489 54.15869,50.028812 1.39162,1.74076 2.81072,3.4602 4.26562,5.14843 C 201.27377,149.50896 222.1652,195.48561 220,241 c -1.21027,14.90143 -4.57645,31.36468 -13,44 -3.34058,-1.40342 -4.99312,-2.93395 -7.10156,-5.85938 -0.56824,-0.77972 -1.13647,-1.55944 -1.72193,-2.36279 -0.5945,-0.83418 -1.189,-1.66837 -1.80151,-2.52783 -0.61448,-0.85094 -1.22896,-1.70188 -1.86206,-2.57861 -1.24803,-1.7302 -2.49276,-3.46278 -3.73413,-5.19776 -1.60921,-2.23778 -3.24,-4.45687 -4.88428,-6.66894 -0.9026,-1.22638 -1.80496,-2.45293 -2.70703,-3.67969 -0.41395,-0.5514 -0.8279,-1.10279 -1.25439,-1.6709 C 179.67454,251.34143 178.05348,248.89216 178,245 c 0.98629,-2.48602 2.01135,-4.71184 3.25,-7.0625 3.23129,-6.50486 5.41746,-12.76309 6.75,-19.9375 0.19529,-1.03834 0.19529,-1.03834 0.39453,-2.09766 0.30382,-1.97278 0.48212,-3.91008 0.60547,-5.90234 0.0529,-0.82113 0.1057,-1.64227 0.16016,-2.48828 C 190.4466,167.07253 167.29519,128.87646 141,100 132.86511,91.344097 124.41629,83.257616 115,76 113.77147,75.020364 112.54366,74.039831 111.31641,73.058594 85.230865,52.416086 54.539622,34.255229 23.066406,23.21875 12.57465,19.498444 6.4263097,14.923113 1,5 0.25,2.1015625 0.25,2.1015625 0,0 Z" /><path
       id="path40"
       transform="matrix(9.3952706,0,0,9.4225379,-289.25339,-290.1021)"
       d="m 219.16797,72.208984 c -0.5348,-0.02021 -1.07304,0.04184 -1.58399,0.181641 -1.24335,0.484823 -2.14016,1.237222 -2.74414,2.431641 -0.58047,1.465539 -0.64974,3.172481 -0.13086,4.666015 0.53225,1.251688 1.38762,2.275297 2.66211,2.8125 1.51015,0.487904 3.39413,0.390521 4.84766,-0.220703 l 0.25977,-0.138672 c 0.3229,-0.142692 0.59975,-0.278809 0.85156,-0.529297 0.0786,-0.26656 0.0847,-0.486388 0.0762,-0.763671 l -0.0215,-0.279297 c -0.0134,-0.325839 -0.0316,-0.64919 -0.0547,-0.97461 -0.31931,0 -0.31819,3.83e-4 -0.56641,0.142578 -0.39189,0.243152 -0.80168,0.41278 -1.22851,0.585938 -1.06957,0.389263 -2.23678,0.521024 -3.30078,0.06055 -1.15462,-0.94114 -1.15414,-0.940081 -1.60938,-2.486328 h 6.8125 v -1.486328 c -0.19131,-1.300604 -0.75857,-2.369731 -1.77734,-3.203126 -0.72173,-0.503612 -1.60085,-0.765148 -2.49219,-0.798828 z m -0.2207,1.9375 c 0.41965,-0.02854 0.84599,0.04104 1.23632,0.214844 0.44224,0.26219 0.66158,0.551811 0.91211,1 l 0.21289,0.955078 h -4.57617 c 0.13152,-0.786803 0.36928,-1.318728 1.02344,-1.796875 0.35911,-0.218821 0.77175,-0.344502 1.19141,-0.373047 z"
       style="fill:#545455;stroke-width:0.10628241" /><path
       id="path42"
       transform="matrix(9.3952706,0,0,9.4225379,-289.25339,-290.1021)"
       d="m 190.84766,72.244141 c -0.39543,-8.5e-4 -0.77823,0.01134 -1.16797,0.08203 -1.2635,0.295767 -2.13607,1.05608 -2.81836,2.134766 -0.77063,1.419096 -0.82901,3.065232 -0.46485,4.615234 0.42441,1.360093 1.22097,2.435727 2.49414,3.109375 1.59888,0.673932 3.62622,0.476565 5.2168,-0.105469 l 0.27344,-0.138672 c 0.21383,-0.104373 0.40178,-0.214726 0.59375,-0.355468 0.23386,-0.27253 0.23472,-0.271275 0.2168,-0.9375 l -0.0195,-0.279297 c -0.0117,-0.325648 -0.0267,-0.649283 -0.0469,-0.97461 -0.31931,0 -0.31862,10e-4 -0.63086,0.152344 -0.38791,0.208271 -0.7756,0.412106 -1.17773,0.591797 -1.20354,0.4198 -2.31812,0.467244 -3.48047,-0.07031 -1.02053,-0.930764 -1.01961,-0.931378 -1.41602,-2.371093 h 6.8125 c 0,-1.484297 -0.0572,-2.852224 -1.0293,-4.03711 -0.86283,-0.892622 -1.85393,-1.389917 -3.10156,-1.416015 z m -0.16211,1.902343 c 0.44329,-0.03452 0.89592,0.03893 1.29883,0.226563 0.63842,0.378253 0.92622,0.928444 1.11914,1.625 v 0.318359 h -4.57813 c 0.12054,-0.721152 0.35936,-1.252144 0.91797,-1.742187 0.36509,-0.24936 0.79889,-0.393212 1.24219,-0.427735 z"
       style="fill:#545455;stroke-width:0.10628241" /><path
       id="path44"
       transform="matrix(9.3952706,0,0,9.4225379,-289.25339,-290.1021)"
       d="m 274.11719,72.222656 c -0.67457,-0.03136 -1.35775,0.05697 -1.95899,0.240235 -1.2483,0.446967 -2.09503,1.374429 -2.66797,2.550781 -0.52237,1.384109 -0.52194,3.231068 0,4.615234 0.61319,1.287749 1.43615,2.238714 2.80079,2.738282 2.02741,0.555095 3.94237,0.09248 5.74804,-0.84961 v -2.123047 c -0.31931,0 -0.3183,0.001 -0.60351,0.152344 -0.35993,0.211909 -0.71965,0.417646 -1.09961,0.591797 -1.26634,0.417054 -2.40745,0.475097 -3.61914,-0.107422 -0.96507,-0.94883 -0.96421,-0.947987 -1.38282,-2.333984 h 6.8125 v -1.699219 c -0.33242,-1.415092 -0.92695,-2.435447 -2.1289,-3.289063 -0.56006,-0.302827 -1.22582,-0.454966 -1.90039,-0.486328 z m -0.57813,1.923828 c 0.42358,-0.0478 0.86008,1e-4 1.25391,0.148438 0.6474,0.388532 1.0358,0.860311 1.22461,1.597656 v 0.423828 h -4.57813 c 0.12054,-0.721152 0.35937,-1.252144 0.91797,-1.742187 0.34576,-0.236156 0.75806,-0.379939 1.18164,-0.427735 z"
       style="fill:#545456;stroke-width:0.10628241" /><path
       id="path46"
       style="fill:#535355"
       transform="translate(1563,346)"
       d="m 0,0 c 6.93,0 13.86,0 21,0 0.33,29.04 0.66,58.08 1,88 9.372198,-10.148237 9.372198,-10.148237 18.636719,-20.386719 3.3646,-3.720525 6.778586,-7.395152 10.203125,-11.060547 0.482109,-0.518847 0.964218,-1.037695 1.460937,-1.572265 0.474859,-0.498787 0.949717,-0.997573 1.438965,-1.511475 1.460339,-1.598386 1.460339,-1.598386 2.818848,-4.336182 4.2828,-3.741454 9.740561,-2.642367 15.191406,-2.445312 1.761504,0.03384 1.761504,0.03384 3.558594,0.06836 C 78.207016,46.81477 81.102864,46.896984 84,47 c -1.377059,2.844166 -2.745511,5.033621 -4.875,7.375 -2.828032,3.1566 -5.603504,6.348858 -8.347656,9.578125 -5.259232,6.187332 -10.637732,12.222883 -16.207032,18.132812 -2.041374,2.314386 -3.893239,4.625149 -5.730957,7.096192 -0.533681,0.716205 -1.067363,1.43241 -1.617218,2.170319 C 46.617179,92.167986 46.617179,92.167986 46,93 c 1.338168,1.233149 1.338168,1.233149 2.703369,2.491211 9.069201,8.391409 17.936673,16.962479 26.672852,25.699709 2.106842,2.10459 4.221654,4.20098 6.33667,6.29736 1.344886,1.34196 2.689306,2.68439 4.033203,4.02734 0.631031,0.62385 1.262062,1.2477 1.912216,1.89045 C 92,137.7711 92,137.7711 92,140 c -9.887899,1.59845 -21.128413,3.20081 -30.235291,-1.76367 -6.983298,-5.23652 -12.797209,-11.65136 -18.551818,-18.1695 -2.3626,-2.6434 -4.807041,-5.20899 -7.246094,-7.78167 C 31.217276,107.26383 26.626893,102.14622 22,97 c -0.33,14.19 -0.66,28.38 -1,43 -6.93,0 -13.86,0 -21,0 C 0,93.8 0,47.6 0,0 Z" /><path
       id="path52"
       style="fill:#535355"
       transform="translate(2624,346)"
       d="m 0,0 c 6.6,0 13.2,0 20,0 0.33,18.15 0.66,36.3 1,55 2.64,-1.98 5.28,-3.96 8,-6 8.616956,-5.231724 19.305047,-5.488746 28.96875,-3.339844 7.79097,2.777337 13.842503,7.687119 17.90625,14.902344 4.625624,10.59611 4.414924,22.562917 4.320312,33.929687 -0.0028,1.311954 -0.0057,2.623907 -0.0086,3.975617 -0.0075,3.435826 -0.02707,6.871466 -0.04941,10.307216 -0.02071,3.52679 -0.02965,7.05361 -0.03967,10.58045 C 80.076406,126.23706 80.041321,133.1185 80,140 c -6.93,0 -13.86,0 -21,0 -0.0041,-1.88638 -0.0082,-3.77276 -0.01245,-5.71631 -0.01948,-6.26666 -0.06191,-12.53284 -0.11964,-18.79926 -0.03414,-3.79551 -0.05936,-7.59062 -0.06347,-11.38629 -0.0043,-3.67029 -0.033,-7.3397 -0.07787,-11.009719 C 58.71369,91.695614 58.70925,90.302699 58.71385,88.90984 58.735811,80.217587 58.060026,73.278599 53,66 49.318072,62.716118 44.88672,61.743704 40,62 c -7.479638,1.713078 -14.482755,5.742862 -19,12 -1.27976,5.077117 -1.192089,10.02754 -1.097656,15.21875 -0.0057,1.468323 -0.01528,2.936635 -0.02867,4.404907 -0.0245,3.841065 0.0044,7.679893 0.04479,11.520753 0.03176,3.9285 0.01243,7.85673 -0.0024,11.78528 C 19.894349,124.62058 19.933843,132.30927 20,140 13.4,140 6.8,140 0,140 0,93.8 0,47.6 0,0 Z" /><path
       id="path54"
       style="fill:#535355"
       transform="translate(961,346)"
       d="m 0,0 c 39.27,0 78.54,0 119,0 0,6.27 0,12.54 0,19 -15.84,0 -31.68,0 -48,0 0,39.93 0,79.86 0,121 -7.59,0 -15.18,0 -23,0 C 48,100.07 48,60.14 48,19 32.16,19 16.32,19 0,19 0,12.73 0,6.46 0,0 Z" /><path
       id="path56"
       transform="matrix(9.3952706,0,0,9.4225379,-289.25339,-290.1021)"
       d="m 294.2793,72.193359 c -1.27185,-0.07638 -2.61424,0.334584 -3.50391,1.13086 -0.27113,0.359019 -0.27245,0.359895 -0.25195,1.128906 0.007,0.108322 0.0143,0.213224 0.0215,0.318359 0.0133,0.374117 0.0298,0.747554 0.0547,1.121094 h 0.31836 c 0.71678,-0.801704 0.71729,-0.802411 1.7168,-1.300781 0.66049,-0.28561 1.43339,-0.304749 2.11523,-0.07813 0.30462,0.239791 0.41645,0.395873 0.53711,0.767578 l 0.0742,0.373047 c 0.0458,0.220797 0.0904,0.440623 0.13281,0.662109 -0.24345,0 -0.24246,0.0015 -1.04883,0.277344 l -0.33398,0.115234 c -1.27822,0.431111 -2.74961,0.88769 -3.45313,2.134766 -0.29557,0.677194 -0.368,1.438575 -0.15039,2.148438 0.28019,0.641156 0.6897,1.130375 1.33985,1.408203 1.2036,0.362731 2.26322,0.119465 3.3457,-0.455079 l 0.19531,-0.109374 c 0.2041,0.203504 0.4062,0.383723 0.64844,0.541015 0.58571,0.275184 1.30093,0.264948 1.91016,0.07031 l 0.20898,-0.08008 c 0.25339,-0.08813 0.4653,-0.183698 0.69141,-0.328126 0.28828,-0.365302 0.28878,-0.365355 0.16015,-1.582031 -0.2291,0.05397 -0.45341,0.114075 -0.67773,0.185547 l -0.25391,0.08594 -0.25781,0.08594 -0.19531,0.06641 c 0.005,-0.66178 0.009,-1.324536 0.0117,-1.986328 8.7e-4,-0.271263 8.8e-4,-0.541237 0.002,-0.8125 0.003,-0.39787 0.005,-0.795481 0.006,-1.193359 3.1e-4,-0.129512 0.002,-0.255157 0.002,-0.38086 0.004,-0.453446 0.005,-0.904607 -0.0215,-1.357421 -0.13775,-0.994237 -0.45835,-1.6231 -1.2461,-2.269532 -0.59786,-0.418711 -1.33455,-0.641673 -2.09765,-0.6875 z m 1.21484,5.503907 c 0.0248,0.411139 0.0413,0.820764 0.0547,1.232422 l 0.0215,0.353515 c 0.0206,0.845886 0.0197,0.845707 -0.25781,1.181641 -0.51114,0.390415 -0.96552,0.561136 -1.61914,0.552734 -0.43839,-0.06032 -0.74408,-0.304366 -1.00586,-0.648437 -0.12523,-0.437024 -0.1236,-0.818749 0.0332,-1.246094 0.61341,-0.722833 1.81414,-1.425781 2.77344,-1.425781 z"
       style="fill:#545455;stroke-width:0.10628241" /><path
       id="path58"
       style="fill:#535355"
       transform="translate(2575.625,390.625)"
       d="M 0,0 C 0.87011719,1.6113e-4 1.7402344,3.2227e-4 2.6367188,4.8828e-4 11.899398,0.16248286 20.051555,2.2132777 28.375,6.375 c 0,6.93 0,13.86 0,21 -4.131434,-0.826287 -6.849218,-1.723409 -10.5625,-3.5 C 9.4518165,19.885991 0.54746966,18.613789 -8.5546875,21.210937 -15.954155,24.562064 -19.693881,29.526588 -23.261719,36.636719 -24.724133,40.646835 -25.087713,44.102802 -25,48.3125 c 0.01015,0.704392 0.0203,1.408784 0.03076,2.134521 0.238585,7.983364 2.22076,13.499952 7.684082,19.392823 6.657337,6.156078 15.3015989,8.00007 24.1953122,7.796875 C 12.735326,77.018198 18.587931,75.551577 23.984375,73.273437 26.375,72.375 26.375,72.375 30.375,72.375 c 0,6.6 0,13.2 0,20 -18.136943,5.458692 -36.2842918,7.65083 -54.144531,-0.394531 C -34.191404,86.120839 -41.60636,76.89055 -45.082031,65.515625 -48.787743,50.906058 -47.670954,34.389494 -40.5,21.0625 -33.771876,10.370848 -24.112719,3.6774402 -11.831299,0.77197266 -7.8938949,0.0635275 -3.9925467,-0.00696374 0,0 Z" /><path
       id="path60"
       style="fill:#535355"
       transform="translate(2112,374)"
       d="m 0,0 c 0,6.27 0,12.54 0,19 9.57,0 19.14,0 29,0 0,5.94 0,11.88 0,18 -9.57,0 -19.14,0 -29,0 0.0739982,7.029829 0.1568314,14.058386 0.26245117,21.087646 0.0332405,2.390884 0.0612751,4.781845 0.0839844,7.172852 0.0335613,3.438246 0.0858797,6.875775 0.1418457,10.313721 0.00639,1.067882 0.0127799,2.135765 0.0193634,3.236007 C 0.55205668,85.936272 0.55205668,85.936272 4,92 c 4.5083481,3.005565 8.711503,2.574102 14,2 2.958119,-0.843541 5.745988,-1.858808 8.589844,-3.027344 C 29,90 29,90 33,89 c 0,6.27 0,12.54 0,19 -11.680098,5.74431 -24.1223137,8.1221 -36.8671875,4.09375 C -10.816433,108.96765 -15.712264,104.15952 -19.375,97.5 c -1.834233,-7.336933 -1.759499,-14.706487 -1.722656,-22.21875 0.0014,-1.098483 0.0028,-2.196965 0.0043,-3.328735 0.0056,-3.4842 0.01811,-6.968335 0.03087,-10.452515 0.005,-2.372395 0.0096,-4.744791 0.01367,-7.117188 C -21.037844,48.588517 -21.020603,42.794269 -21,37 c -5.28,0 -10.56,0 -16,0 1.010712,-5.05356 1.329114,-5.826451 4.753906,-9.179688 0.772793,-0.764414 1.545586,-1.528828 2.341797,-2.316406 0.814043,-0.785039 1.628086,-1.570078 2.466797,-2.378906 0.786973,-0.777305 1.573945,-1.554609 2.384766,-2.355469 4.330188,-4.248082 8.7691,-8.321587 13.362548,-12.2822263 C -9.1374863,6.2410179 -6.8495825,3.7780523 -4.5429687,1.2851562 -3,0 -3,0 0,0 Z" /><path
       id="path62"
       style="fill:#545456"
       transform="translate(1685,374)"
       d="m 0,0 c 0,6.27 0,12.54 0,19 9.57,0 19.14,0 29,0 0,5.94 0,11.88 0,18 -9.57,0 -19.14,0 -29,0 0.07405362,6.869112 0.15693707,13.736934 0.26245117,20.605469 0.0332122,2.335543 0.0612556,4.671167 0.0839844,7.006836 0.0336135,3.361346 0.0859345,6.721967 0.1418457,10.083007 0.009585,1.561272 0.009585,1.561272 0.0193634,3.154084 C 0.61695515,83.264422 0.83959924,87.38314 4,92 c 4.53635,3.024233 8.68009,2.669866 14,2 3.517617,-1.124227 6.861726,-2.44017 10.25,-3.90625 C 31,89 31,89 34,89 c 0,6.27 0,12.54 0,19 -11.995713,5.99786 -25.2766445,7.98219 -38.3125,3.875 -7.159071,-3.14817 -11.767591,-8.03415 -14.835754,-15.127136 -1.634418,-5.272885 -1.336486,-10.623462 -1.242371,-16.09552 0.0057,-1.25244 0.01132,-2.50488 0.01715,-3.795273 0.01849,-3.299721 0.05431,-6.598634 0.09882,-9.898087 0.04121,-3.378806 0.05925,-6.757732 0.07935,-10.136718 C -20.151371,50.214491 -20.082406,43.607402 -20,37 c -5.28,0 -10.56,0 -16,0 0,-5 0,-5 1.25,-6.773438 0.5775,-0.528515 1.155,-1.057031 1.75,-1.601562 0.556875,-0.523359 1.11375,-1.046719 1.6875,-1.585938 1.331609,-1.174155 2.668637,-2.342351 4.020264,-3.493408 C -20.914475,18.071852 -15.101671,12.103633 -9.2714844,6.0566406 -8.5051367,5.2761133 -7.7387891,4.4955859 -6.9492187,3.6914063 -6.2617456,2.9818579 -5.5742725,2.2723096 -4.8659668,1.5412598 -3,0 -3,0 0,0 Z" /><path
       id="path64"
       style="fill:#535356"
       transform="translate(2750,374)"
       d="m 0,0 c 0,6.27 0,12.54 0,19 9.57,0 19.14,0 29,0 0,5.94 0,11.88 0,18 -9.57,0 -19.14,0 -29,0 0.0741729,6.547677 0.15716326,13.094032 0.26245117,19.641113 0.0331514,2.224864 0.0612135,4.44981 0.0839844,6.674805 0.0337259,3.207548 0.0860516,6.414351 0.1418457,9.621582 0.00639,0.986777 0.0127799,1.973555 0.0193634,2.990234 C 0.63426026,81.942926 1.4458248,86.526206 4,92 c 3.9985083,3.103565 9.184868,2.570831 14,2 2.934708,-0.856764 5.723681,-1.875958 8.554687,-3.027344 C 29,90 29,90 33,89 c 0,6.6 0,13.2 0,20 -11.503121,4.34874 -24.0034838,7.29432 -36,3 -6.3303087,-2.91882 -12.075371,-6.44396 -15,-13 -2.167384,-6.926931 -2.26073,-13.369916 -2.195312,-20.59375 0.0028,-1.187267 0.0057,-2.374534 0.0086,-3.597778 0.01114,-3.769596 0.03624,-7.538949 0.06174,-11.308472 0.01004,-2.565101 0.01916,-5.130205 0.02734,-7.695313 C -20.075676,49.536366 -20.041188,43.268224 -20,37 c -5.28,0 -10.56,0 -16,0 1.125069,-5.625346 1.125069,-5.625346 3.92749,-8.397461 0.614113,-0.617038 1.228225,-1.234076 1.860947,-1.869812 0.666652,-0.649144 1.333303,-1.298287 2.020157,-1.967102 0.681919,-0.678631 1.363838,-1.357262 2.066421,-2.056458 1.440438,-1.430028 2.885625,-2.855286 4.33519,-4.276062 2.224313,-2.180182 4.434946,-4.3735 6.643311,-6.569824 1.40092,-1.387499 2.802588,-2.7742437 4.205078,-4.160156 0.664627,-0.6572406 1.3292548,-1.3144812 2.0140226,-1.9916382 0.6172645,-0.6044293 1.2345291,-1.2088586 1.8704986,-1.831604 0.5432543,-0.53341 1.0865085,-1.0668201 1.646225,-1.616394 C -3.5725561,0.61715036 -2.4892909,0 0,0 Z" /><path
       id="path66"
       style="fill:#535355"
       transform="translate(922,346)"
       d="m 0,0 c 7.26,0 14.52,0 22,0 0,46.2 0,92.4 0,140 -7.26,0 -14.52,0 -22,0 C 0,93.8 0,47.6 0,0 Z" /><path
       id="path68"
       style="fill:#535356"
       transform="translate(1420,393)"
       d="m 0,0 c 6.6,0 13.2,0 20,0 0.06961,14.691015 0.123066,29.381994 0.155437,44.073141 0.01543,6.822194 0.03645,13.644283 0.07088,20.46641 0.03323,6.58764 0.05055,13.1752 0.05831,19.762928 0.0055,2.509312 0.01633,5.018619 0.03256,7.527885 0.02188,3.523309 0.02477,7.046172 0.02339,10.569536 0.01079,1.03003 0.02157,2.06007 0.03268,3.12131 -0.04585,10.81812 -2.698638,20.53943 -10.299041,28.49441 C 3.4676511,140.13696 3.4676511,140.13696 -1,140 c -2.5988544,-1.76909 -4.6656152,-3.96669 -6.8125,-6.25 -0.5974805,-0.59941 -1.1949609,-1.19883 -1.8105469,-1.81641 C -14,127.42158 -14,127.42158 -14,124 c 1.051875,-0.495 2.10375,-0.99 3.1875,-1.5 4.7866281,-2.71857 7.789326,-7.07445 9.3616934,-12.33868 0.48037836,-2.3031 0.5898814,-4.39051 0.60902498,-6.74244 0.009789,-0.91422 0.0195776,-1.82845 0.0296631,-2.77038 0.005755,-0.9955 0.0115109,-1.990999 0.0174408,-3.016664 0.0148494,-1.580955 0.0148494,-1.580955 0.0299988,-3.193848 0.0315931,-3.484515 0.0563639,-6.969043 0.0810852,-10.453613 0.0205714,-2.415673 0.0415679,-4.831343 0.062973,-7.247009 0.0552013,-6.358878 0.1046192,-12.717788 0.15284729,-19.076721 0.0502292,-6.488474 0.10590786,-12.9769 0.16113282,-19.465333 C -0.19908278,25.46358 -0.09813603,12.731808 0,0 Z" /><path
       id="path70"
       style="fill:#535356"
       transform="translate(1291.5,393.75)"
       d="M 0,0 C 3.7051496,1.9720958 6.9458828,3.8695508 9.5,7.25 9.5076622,11.809036 6.8361655,15.346433 4.4375,19.0625 4.0604492,19.65998 3.6833984,20.257461 3.2949219,20.873047 2.3701043,22.336366 1.4359793,23.793795 0.5,25.25 c -3.4161936,-0.614147 -5.4405434,-1.918517 -8.1875,-4 -4.539048,-3.0806 -8.289133,-4.560199 -13.8125,-4 -5.650768,1.500662 -9.456467,4.759047 -12.653122,9.587448 -4.457374,7.984127 -4.805761,16.926204 -4.858597,25.861771 -0.01795,1.13863 -0.0359,2.27726 -0.0544,3.450393 -0.05369,3.595927 -0.08787,7.191723 -0.121384,10.787888 -0.03321,2.455096 -0.0677,4.910175 -0.103516,7.365234 -0.08449,5.982328 -0.151498,11.96462 -0.208984,17.947266 -6.6,0 -13.2,0 -20,0 0,-30.69 0,-61.38 0,-93 6.6,0 13.2,0 20,0 0.33,4.95 0.66,9.9 1,15 0.724453,-0.819844 1.448906,-1.639688 2.195313,-2.484375 C -35.328473,10.676771 -34.351891,9.5882467 -33.375,8.5 -32.900625,7.9611719 -32.42625,7.4223437 -31.9375,6.8671875 -22.983725,-3.0545634 -12.335458,-6.0088058 0,0 Z" /><path
       id="path76"
       style="fill:#545456"
       transform="translate(2044,393)"
       d="m 0,0 c 6.6,0 13.2,0 20,0 0,30.69 0,61.38 0,93 C 13.4,93 6.8,93 0,93 0,62.31 0,31.62 0,0 Z" /><path
       id="path78"
       style="fill:#545455"
       transform="translate(2485,2)"
       d="m 0,0 c 14.19,0 28.38,0 43,0 0,13.53 0,27.06 0,41 C 28.81,41 14.62,41 0,41 0,27.47 0,13.94 0,0 Z" /><path
       id="path80"
       style="fill:#545455"
       transform="translate(1629,2)"
       d="m 0,0 c 14.19,0 28.38,0 43,0 0,13.53 0,27.06 0,41 C 28.81,41 14.62,41 0,41 0,27.47 0,13.94 0,0 Z" /><path
       id="path84"
       style="fill:#545455"
       transform="translate(1055,430)"
       d="m 0,0 c 17.16,0 34.32,0 52,0 0,6.93 0,13.86 0,21 C 34.84,21 17.68,21 0,21 0,14.07 0,7.14 0,0 Z" /><path
       id="path98"
       style="fill:#545455"
       transform="translate(1429.25,354.6875)"
       d="m 0,0 c 3.5773685,0.05567889 5.53821,0.21308839 8.8125,1.75 2.751776,3.6394457 3.760918,7.0097614 3.9375,11.5625 -0.708323,3.804496 -2.264269,6.348352 -5.1875,8.9375 -3.6774135,1.389245 -6.96684895,1.754868 -10.8125,1.0625 -3.7521228,-2.015029 -5.636441,-3.454661 -8,-7 -0.545939,-3.39057 -0.551508,-6.6098492 0,-10 2.4375,-3.0625 2.4375,-3.0625 5,-5 C -4.5331051,-0.40439489 -2.3412186,0.05946946 0,0 Z" /><path
       id="path100"
       style="fill:#545455"
       transform="translate(2059,355)"
       d="M 0,0 C 3.3250536,1.5607394 4.4925093,2.6795387 5.8046875,6.09375 6.7539761,9.6096337 7.1701298,12.234416 6.375,15.8125 4.0819527,19.46053 2.1246663,21.625111 -2,23 -6.2516022,23.401095 -8.5006973,23.263783 -12.3125,21.25 -16.308943,17.904141 -16.82219,16.355801 -17.5,11.1875 -17.349203,6.9572436 -15.96341,4.3275544 -13.046875,1.2929687 -8.9583242,-1.2896845 -4.6061447,-0.85663057 0,0 Z" /></g></g></svg>
