<?xml version="1.0" encoding="UTF-8" standalone="no"?>
<svg
   version="1.1"
   id="Layer_1"
   x="0px"
   y="0px"
   viewBox="0 0 358 190"
   xml:space="preserve"
   width="358"
   height="190"
   xmlns="http://www.w3.org/2000/svg"
   xmlns:svg="http://www.w3.org/2000/svg"
   xmlns:rdf="http://www.w3.org/1999/02/22-rdf-syntax-ns#"
   xmlns:cc="http://creativecommons.org/ns#"
   xmlns:dc="http://purl.org/dc/elements/1.1/"><metadata
   id="metadata43"><rdf:RDF><cc:Work
       rdf:about=""><dc:format>image/svg+xml</dc:format><dc:type
         rdf:resource="http://purl.org/dc/dcmitype/StillImage" /></cc:Work></rdf:RDF></metadata><defs
   id="defs41"><clipPath
     id="clip1"><path
       d="M 64,229 H 235 V 332 H 64 Z m 0,0"
       id="path61" /></clipPath><clipPath
     id="clip2"><path
       d="m 64.71875,274.75 c 0.753906,7.28906 3.503906,13.90234 7.769531,19.82812 l 20.53125,-18.78515 c -0.289062,-1.2461 -0.527343,-2.51172 -0.660156,-3.81641 -2.351563,-22.78515 18.046875,-34.02344 43.683595,-35.53906 l 6.21875,-5.6875 c -5.08594,-0.53125 -10.13281,-0.80078 -15.07422,-0.80078 -35.652344,0.004 -65.648438,13.97656 -62.46875,44.80078 m 119.92969,-30.72656 c 19.90625,7.49609 36.55859,20.21484 41.68359,37.30859 2.11719,7.05469 1.31641,13.01172 -1.63281,17.92969 l 6.45312,8.89844 c 3.3125,-6.00782 4.1211,-13.21485 1.58203,-21.67969 -6.30468,-21.01172 -26.49609,-36.7461 -50.80859,-46.21485 z m -91.207034,68.73437 c 33.699224,19.70313 88.593754,23.94531 118.917964,10.78516 l -13.57421,-9.04688 c -23.16797,5.28516 -55.57032,1.83985 -78.55469,-9.54687 z m 0,0"
       id="path64-3" /></clipPath><clipPath
     id="clip3"><path
       d="M 53,220 H 252 V 344 H 53 Z m 0,0"
       id="path67" /></clipPath><clipPath
     id="clip4"><path
       d="m 53.171875,320.26172 113.351565,-33.04688 84.5,56.30078 -89.03516,-122.80078 z m 0,0"
       id="path70-6" /></clipPath><linearGradient
     id="linear0"
     gradientUnits="userSpaceOnUse"
     x1="-1.47151e-06"
     y1="0"
     x2="0.99999797"
     y2="0"
     gradientTransform="matrix(0,122.79903,-122.79903,0,152.09718,220.71518)"><stop
       offset="0"
       style="stop-color:rgb(92.156982%,92.549133%,92.549133%);stop-opacity:1;"
       id="stop73" /><stop
       offset="0.00390625"
       style="stop-color:rgb(91.764832%,92.156982%,92.549133%);stop-opacity:1;"
       id="stop75" /><stop
       offset="0.0078125"
       style="stop-color:rgb(91.372681%,91.764832%,92.156982%);stop-opacity:1;"
       id="stop77" /><stop
       offset="0.0117187"
       style="stop-color:rgb(91.372681%,91.372681%,91.764832%);stop-opacity:1;"
       id="stop79" /><stop
       offset="0.015625"
       style="stop-color:rgb(90.98053%,90.98053%,91.372681%);stop-opacity:1;"
       id="stop81" /><stop
       offset="0.0195312"
       style="stop-color:rgb(90.588379%,90.98053%,91.372681%);stop-opacity:1;"
       id="stop83" /><stop
       offset="0.0234375"
       style="stop-color:rgb(90.196228%,90.588379%,90.98053%);stop-opacity:1;"
       id="stop85" /><stop
       offset="0.0273438"
       style="stop-color:rgb(89.804077%,90.196228%,90.588379%);stop-opacity:1;"
       id="stop87" /><stop
       offset="0.03125"
       style="stop-color:rgb(89.804077%,90.196228%,90.588379%);stop-opacity:1;"
       id="stop89" /><stop
       offset="0.0351562"
       style="stop-color:rgb(89.411926%,89.804077%,90.196228%);stop-opacity:1;"
       id="stop91" /><stop
       offset="0.0390625"
       style="stop-color:rgb(89.019775%,89.411926%,89.804077%);stop-opacity:1;"
       id="stop93" /><stop
       offset="0.0429688"
       style="stop-color:rgb(89.019775%,89.411926%,89.804077%);stop-opacity:1;"
       id="stop95" /><stop
       offset="0.046875"
       style="stop-color:rgb(88.627625%,89.019775%,89.411926%);stop-opacity:1;"
       id="stop97" /><stop
       offset="0.0507812"
       style="stop-color:rgb(88.235474%,88.627625%,89.019775%);stop-opacity:1;"
       id="stop99" /><stop
       offset="0.0546875"
       style="stop-color:rgb(87.843323%,88.235474%,88.627625%);stop-opacity:1;"
       id="stop101" /><stop
       offset="0.0585937"
       style="stop-color:rgb(87.843323%,88.235474%,88.627625%);stop-opacity:1;"
       id="stop103" /><stop
       offset="0.0625"
       style="stop-color:rgb(87.451172%,87.843323%,88.235474%);stop-opacity:1;"
       id="stop105" /><stop
       offset="0.0664062"
       style="stop-color:rgb(87.059021%,87.843323%,88.235474%);stop-opacity:1;"
       id="stop107" /><stop
       offset="0.0703125"
       style="stop-color:rgb(87.059021%,87.451172%,87.843323%);stop-opacity:1;"
       id="stop109" /><stop
       offset="0.0742188"
       style="stop-color:rgb(86.66687%,87.059021%,87.451172%);stop-opacity:1;"
       id="stop111" /><stop
       offset="0.078125"
       style="stop-color:rgb(86.274719%,86.66687%,87.059021%);stop-opacity:1;"
       id="stop113" /><stop
       offset="0.0820312"
       style="stop-color:rgb(85.882568%,86.274719%,87.059021%);stop-opacity:1;"
       id="stop115" /><stop
       offset="0.0859375"
       style="stop-color:rgb(85.490417%,85.882568%,86.66687%);stop-opacity:1;"
       id="stop117" /><stop
       offset="0.0898438"
       style="stop-color:rgb(85.490417%,85.882568%,86.66687%);stop-opacity:1;"
       id="stop119" /><stop
       offset="0.09375"
       style="stop-color:rgb(85.098267%,85.882568%,86.274719%);stop-opacity:1;"
       id="stop121" /><stop
       offset="0.0976562"
       style="stop-color:rgb(85.098267%,85.490417%,85.882568%);stop-opacity:1;"
       id="stop123" /><stop
       offset="0.101562"
       style="stop-color:rgb(84.706116%,85.098267%,85.882568%);stop-opacity:1;"
       id="stop125" /><stop
       offset="0.105469"
       style="stop-color:rgb(84.313965%,84.706116%,85.490417%);stop-opacity:1;"
       id="stop127" /><stop
       offset="0.109375"
       style="stop-color:rgb(83.921814%,84.313965%,85.098267%);stop-opacity:1;"
       id="stop129" /><stop
       offset="0.113281"
       style="stop-color:rgb(83.529663%,84.313965%,84.706116%);stop-opacity:1;"
       id="stop131" /><stop
       offset="0.117187"
       style="stop-color:rgb(83.137512%,83.921814%,84.313965%);stop-opacity:1;"
       id="stop133" /><stop
       offset="0.121094"
       style="stop-color:rgb(83.137512%,83.921814%,84.313965%);stop-opacity:1;"
       id="stop135" /><stop
       offset="0.125"
       style="stop-color:rgb(83.137512%,83.529663%,84.313965%);stop-opacity:1;"
       id="stop137" /><stop
       offset="0.128906"
       style="stop-color:rgb(82.745361%,83.137512%,83.921814%);stop-opacity:1;"
       id="stop139" /><stop
       offset="0.132812"
       style="stop-color:rgb(82.35321%,82.745361%,83.529663%);stop-opacity:1;"
       id="stop141" /><stop
       offset="0.136719"
       style="stop-color:rgb(81.96106%,82.745361%,83.137512%);stop-opacity:1;"
       id="stop143" /><stop
       offset="0.140625"
       style="stop-color:rgb(81.568909%,82.35321%,82.745361%);stop-opacity:1;"
       id="stop145" /><stop
       offset="0.144531"
       style="stop-color:rgb(81.568909%,81.96106%,82.745361%);stop-opacity:1;"
       id="stop147" /><stop
       offset="0.148438"
       style="stop-color:rgb(81.176758%,81.568909%,82.35321%);stop-opacity:1;"
       id="stop149" /><stop
       offset="0.152344"
       style="stop-color:rgb(81.176758%,81.568909%,82.35321%);stop-opacity:1;"
       id="stop151" /><stop
       offset="0.15625"
       style="stop-color:rgb(80.784607%,81.176758%,81.96106%);stop-opacity:1;"
       id="stop153" /><stop
       offset="0.160156"
       style="stop-color:rgb(80.392456%,81.176758%,81.568909%);stop-opacity:1;"
       id="stop155" /><stop
       offset="0.164062"
       style="stop-color:rgb(80.000305%,80.784607%,81.568909%);stop-opacity:1;"
       id="stop157" /><stop
       offset="0.167969"
       style="stop-color:rgb(79.608154%,80.392456%,81.176758%);stop-opacity:1;"
       id="stop159" /><stop
       offset="0.171875"
       style="stop-color:rgb(79.608154%,80.000305%,80.784607%);stop-opacity:1;"
       id="stop161" /><stop
       offset="0.175781"
       style="stop-color:rgb(79.216003%,79.608154%,80.392456%);stop-opacity:1;"
       id="stop163" /><stop
       offset="0.179688"
       style="stop-color:rgb(78.823853%,79.608154%,80.000305%);stop-opacity:1;"
       id="stop165" /><stop
       offset="0.183594"
       style="stop-color:rgb(78.823853%,79.608154%,80.000305%);stop-opacity:1;"
       id="stop167" /><stop
       offset="0.1875"
       style="stop-color:rgb(78.431702%,79.216003%,80.000305%);stop-opacity:1;"
       id="stop169" /><stop
       offset="0.191406"
       style="stop-color:rgb(78.039551%,78.823853%,79.608154%);stop-opacity:1;"
       id="stop171" /><stop
       offset="0.195312"
       style="stop-color:rgb(77.6474%,78.431702%,79.216003%);stop-opacity:1;"
       id="stop173" /><stop
       offset="0.199219"
       style="stop-color:rgb(77.255249%,78.039551%,78.823853%);stop-opacity:1;"
       id="stop175" /><stop
       offset="0.203125"
       style="stop-color:rgb(77.255249%,77.6474%,78.431702%);stop-opacity:1;"
       id="stop177" /><stop
       offset="0.207031"
       style="stop-color:rgb(76.863098%,77.6474%,78.431702%);stop-opacity:1;"
       id="stop179" /><stop
       offset="0.210937"
       style="stop-color:rgb(76.470947%,77.255249%,78.039551%);stop-opacity:1;"
       id="stop181" /><stop
       offset="0.214844"
       style="stop-color:rgb(76.470947%,77.255249%,78.039551%);stop-opacity:1;"
       id="stop183" /><stop
       offset="0.21875"
       style="stop-color:rgb(76.078796%,76.863098%,77.6474%);stop-opacity:1;"
       id="stop185" /><stop
       offset="0.222656"
       style="stop-color:rgb(75.686646%,76.470947%,77.255249%);stop-opacity:1;"
       id="stop187" /><stop
       offset="0.226562"
       style="stop-color:rgb(75.294495%,76.078796%,76.863098%);stop-opacity:1;"
       id="stop189" /><stop
       offset="0.230469"
       style="stop-color:rgb(75.294495%,75.686646%,76.863098%);stop-opacity:1;"
       id="stop191" /><stop
       offset="0.234375"
       style="stop-color:rgb(74.902344%,75.686646%,76.470947%);stop-opacity:1;"
       id="stop193" /><stop
       offset="0.238281"
       style="stop-color:rgb(74.510193%,75.294495%,76.078796%);stop-opacity:1;"
       id="stop195" /><stop
       offset="0.242188"
       style="stop-color:rgb(74.118042%,74.902344%,75.686646%);stop-opacity:1;"
       id="stop197" /><stop
       offset="0.246094"
       style="stop-color:rgb(74.118042%,74.902344%,75.686646%);stop-opacity:1;"
       id="stop199" /><stop
       offset="0.25"
       style="stop-color:rgb(73.725891%,74.510193%,75.294495%);stop-opacity:1;"
       id="stop201" /><stop
       offset="0.253906"
       style="stop-color:rgb(73.33374%,74.118042%,75.294495%);stop-opacity:1;"
       id="stop203" /><stop
       offset="0.257813"
       style="stop-color:rgb(73.33374%,74.118042%,74.902344%);stop-opacity:1;"
       id="stop205" /><stop
       offset="0.261719"
       style="stop-color:rgb(72.941589%,73.725891%,74.510193%);stop-opacity:1;"
       id="stop207" /><stop
       offset="0.265625"
       style="stop-color:rgb(72.549438%,73.33374%,74.118042%);stop-opacity:1;"
       id="stop209" /><stop
       offset="0.269531"
       style="stop-color:rgb(72.157288%,72.941589%,73.725891%);stop-opacity:1;"
       id="stop211" /><stop
       offset="0.273438"
       style="stop-color:rgb(71.765137%,72.549438%,73.725891%);stop-opacity:1;"
       id="stop213" /><stop
       offset="0.277344"
       style="stop-color:rgb(71.765137%,72.549438%,73.725891%);stop-opacity:1;"
       id="stop215" /><stop
       offset="0.28125"
       style="stop-color:rgb(71.765137%,72.157288%,73.33374%);stop-opacity:1;"
       id="stop217" /><stop
       offset="0.285156"
       style="stop-color:rgb(71.372986%,72.157288%,72.941589%);stop-opacity:1;"
       id="stop219" /><stop
       offset="0.289062"
       style="stop-color:rgb(70.980835%,71.765137%,72.549438%);stop-opacity:1;"
       id="stop221" /><stop
       offset="0.292969"
       style="stop-color:rgb(70.588684%,71.372986%,72.157288%);stop-opacity:1;"
       id="stop223" /><stop
       offset="0.296875"
       style="stop-color:rgb(70.196533%,70.980835%,72.157288%);stop-opacity:1;"
       id="stop225" /><stop
       offset="0.300781"
       style="stop-color:rgb(69.804382%,70.588684%,71.765137%);stop-opacity:1;"
       id="stop227" /><stop
       offset="0.304688"
       style="stop-color:rgb(69.804382%,70.588684%,71.372986%);stop-opacity:1;"
       id="stop229" /><stop
       offset="0.308594"
       style="stop-color:rgb(69.804382%,70.588684%,71.372986%);stop-opacity:1;"
       id="stop231" /><stop
       offset="0.3125"
       style="stop-color:rgb(69.412231%,70.196533%,70.980835%);stop-opacity:1;"
       id="stop233" /><stop
       offset="0.316406"
       style="stop-color:rgb(69.020081%,69.804382%,70.588684%);stop-opacity:1;"
       id="stop235" /><stop
       offset="0.320312"
       style="stop-color:rgb(68.62793%,69.412231%,70.588684%);stop-opacity:1;"
       id="stop237" /><stop
       offset="0.324219"
       style="stop-color:rgb(68.235779%,69.020081%,70.196533%);stop-opacity:1;"
       id="stop239" /><stop
       offset="0.328125"
       style="stop-color:rgb(67.843628%,69.020081%,69.804382%);stop-opacity:1;"
       id="stop241" /><stop
       offset="0.332031"
       style="stop-color:rgb(67.843628%,68.62793%,69.412231%);stop-opacity:1;"
       id="stop243" /><stop
       offset="0.335937"
       style="stop-color:rgb(67.843628%,68.62793%,69.412231%);stop-opacity:1;"
       id="stop245" /><stop
       offset="0.339844"
       style="stop-color:rgb(67.451477%,68.235779%,69.020081%);stop-opacity:1;"
       id="stop247" /><stop
       offset="0.34375"
       style="stop-color:rgb(67.059326%,67.843628%,69.020081%);stop-opacity:1;"
       id="stop249" /><stop
       offset="0.347656"
       style="stop-color:rgb(66.667175%,67.451477%,68.62793%);stop-opacity:1;"
       id="stop251" /><stop
       offset="0.351563"
       style="stop-color:rgb(66.275024%,67.451477%,68.235779%);stop-opacity:1;"
       id="stop253" /><stop
       offset="0.355469"
       style="stop-color:rgb(66.275024%,67.059326%,67.843628%);stop-opacity:1;"
       id="stop255" /><stop
       offset="0.359375"
       style="stop-color:rgb(65.882874%,66.667175%,67.843628%);stop-opacity:1;"
       id="stop257" /><stop
       offset="0.363281"
       style="stop-color:rgb(65.490723%,66.275024%,67.451477%);stop-opacity:1;"
       id="stop259" /><stop
       offset="0.367188"
       style="stop-color:rgb(65.490723%,66.275024%,67.451477%);stop-opacity:1;"
       id="stop261" /><stop
       offset="0.371094"
       style="stop-color:rgb(65.098572%,65.882874%,67.059326%);stop-opacity:1;"
       id="stop263" /><stop
       offset="0.375"
       style="stop-color:rgb(64.706421%,65.882874%,66.667175%);stop-opacity:1;"
       id="stop265" /><stop
       offset="0.378906"
       style="stop-color:rgb(64.706421%,65.490723%,66.275024%);stop-opacity:1;"
       id="stop267" /><stop
       offset="0.382812"
       style="stop-color:rgb(64.31427%,65.098572%,66.275024%);stop-opacity:1;"
       id="stop269" /><stop
       offset="0.386719"
       style="stop-color:rgb(63.922119%,64.706421%,65.882874%);stop-opacity:1;"
       id="stop271" /><stop
       offset="0.390625"
       style="stop-color:rgb(63.529968%,64.31427%,65.490723%);stop-opacity:1;"
       id="stop273" /><stop
       offset="0.394531"
       style="stop-color:rgb(63.529968%,64.31427%,65.098572%);stop-opacity:1;"
       id="stop275" /><stop
       offset="0.398438"
       style="stop-color:rgb(63.529968%,64.31427%,65.098572%);stop-opacity:1;"
       id="stop277" /><stop
       offset="0.402344"
       style="stop-color:rgb(63.137817%,63.922119%,64.706421%);stop-opacity:1;"
       id="stop279" /><stop
       offset="0.40625"
       style="stop-color:rgb(62.745667%,63.529968%,64.706421%);stop-opacity:1;"
       id="stop281" /><stop
       offset="0.410156"
       style="stop-color:rgb(62.353516%,63.137817%,64.31427%);stop-opacity:1;"
       id="stop283" /><stop
       offset="0.414062"
       style="stop-color:rgb(61.961365%,62.745667%,63.922119%);stop-opacity:1;"
       id="stop285" /><stop
       offset="0.417969"
       style="stop-color:rgb(61.961365%,62.745667%,63.529968%);stop-opacity:1;"
       id="stop287" /><stop
       offset="0.421875"
       style="stop-color:rgb(61.569214%,62.353516%,63.529968%);stop-opacity:1;"
       id="stop289" /><stop
       offset="0.425781"
       style="stop-color:rgb(61.177063%,61.961365%,63.137817%);stop-opacity:1;"
       id="stop291" /><stop
       offset="0.429687"
       style="stop-color:rgb(61.177063%,61.961365%,63.137817%);stop-opacity:1;"
       id="stop293" /><stop
       offset="0.433594"
       style="stop-color:rgb(60.784912%,61.569214%,62.745667%);stop-opacity:1;"
       id="stop295" /><stop
       offset="0.4375"
       style="stop-color:rgb(60.392761%,61.569214%,62.353516%);stop-opacity:1;"
       id="stop297" /><stop
       offset="0.441406"
       style="stop-color:rgb(60.392761%,61.177063%,61.961365%);stop-opacity:1;"
       id="stop299" /><stop
       offset="0.445312"
       style="stop-color:rgb(60.00061%,60.784912%,61.961365%);stop-opacity:1;"
       id="stop301" /><stop
       offset="0.449219"
       style="stop-color:rgb(59.608459%,60.392761%,61.569214%);stop-opacity:1;"
       id="stop303" /><stop
       offset="0.453125"
       style="stop-color:rgb(59.216309%,60.00061%,61.177063%);stop-opacity:1;"
       id="stop305" /><stop
       offset="0.457031"
       style="stop-color:rgb(59.216309%,60.00061%,60.784912%);stop-opacity:1;"
       id="stop307" /><stop
       offset="0.460938"
       style="stop-color:rgb(59.216309%,60.00061%,60.784912%);stop-opacity:1;"
       id="stop309" /><stop
       offset="0.464844"
       style="stop-color:rgb(58.824158%,59.608459%,60.784912%);stop-opacity:1;"
       id="stop311" /><stop
       offset="0.46875"
       style="stop-color:rgb(58.432007%,59.216309%,60.392761%);stop-opacity:1;"
       id="stop313" /><stop
       offset="0.472656"
       style="stop-color:rgb(58.039856%,58.824158%,60.00061%);stop-opacity:1;"
       id="stop315" /><stop
       offset="0.476562"
       style="stop-color:rgb(58.039856%,58.824158%,59.608459%);stop-opacity:1;"
       id="stop317" /><stop
       offset="0.480469"
       style="stop-color:rgb(57.647705%,58.432007%,59.608459%);stop-opacity:1;"
       id="stop319" /><stop
       offset="0.484375"
       style="stop-color:rgb(57.255554%,58.039856%,59.216309%);stop-opacity:1;"
       id="stop321" /><stop
       offset="0.488281"
       style="stop-color:rgb(56.863403%,57.647705%,58.824158%);stop-opacity:1;"
       id="stop323" /><stop
       offset="0.492188"
       style="stop-color:rgb(56.863403%,57.647705%,58.824158%);stop-opacity:1;"
       id="stop325" /><stop
       offset="0.496094"
       style="stop-color:rgb(56.863403%,57.647705%,58.432007%);stop-opacity:1;"
       id="stop327" /><stop
       offset="0.5"
       style="stop-color:rgb(56.471252%,57.255554%,58.432007%);stop-opacity:1;"
       id="stop329" /><stop
       offset="0.503906"
       style="stop-color:rgb(56.079102%,56.863403%,58.039856%);stop-opacity:1;"
       id="stop331" /><stop
       offset="0.507813"
       style="stop-color:rgb(55.686951%,56.471252%,57.647705%);stop-opacity:1;"
       id="stop333" /><stop
       offset="0.511719"
       style="stop-color:rgb(55.686951%,56.471252%,57.255554%);stop-opacity:1;"
       id="stop335" /><stop
       offset="0.515625"
       style="stop-color:rgb(55.2948%,56.079102%,56.863403%);stop-opacity:1;"
       id="stop337" /><stop
       offset="0.519531"
       style="stop-color:rgb(54.902649%,55.686951%,56.863403%);stop-opacity:1;"
       id="stop339" /><stop
       offset="0.523438"
       style="stop-color:rgb(54.902649%,55.686951%,56.863403%);stop-opacity:1;"
       id="stop341" /><stop
       offset="0.527344"
       style="stop-color:rgb(54.510498%,55.2948%,56.471252%);stop-opacity:1;"
       id="stop343" /><stop
       offset="0.53125"
       style="stop-color:rgb(54.510498%,55.2948%,56.079102%);stop-opacity:1;"
       id="stop345" /><stop
       offset="0.535156"
       style="stop-color:rgb(54.118347%,54.902649%,55.686951%);stop-opacity:1;"
       id="stop347" /><stop
       offset="0.539062"
       style="stop-color:rgb(53.726196%,54.510498%,55.686951%);stop-opacity:1;"
       id="stop349" /><stop
       offset="0.542969"
       style="stop-color:rgb(53.334045%,54.118347%,55.2948%);stop-opacity:1;"
       id="stop351" /><stop
       offset="0.546875"
       style="stop-color:rgb(53.334045%,54.118347%,54.902649%);stop-opacity:1;"
       id="stop353" /><stop
       offset="0.550781"
       style="stop-color:rgb(52.941895%,53.726196%,54.510498%);stop-opacity:1;"
       id="stop355" /><stop
       offset="0.554688"
       style="stop-color:rgb(52.941895%,53.726196%,54.510498%);stop-opacity:1;"
       id="stop357" /><stop
       offset="0.558594"
       style="stop-color:rgb(52.549744%,53.334045%,54.510498%);stop-opacity:1;"
       id="stop359" /><stop
       offset="0.5625"
       style="stop-color:rgb(52.157593%,52.941895%,54.118347%);stop-opacity:1;"
       id="stop361" /><stop
       offset="0.566406"
       style="stop-color:rgb(52.157593%,52.941895%,53.726196%);stop-opacity:1;"
       id="stop363" /><stop
       offset="0.570312"
       style="stop-color:rgb(51.765442%,52.549744%,53.334045%);stop-opacity:1;"
       id="stop365" /><stop
       offset="0.574219"
       style="stop-color:rgb(51.373291%,52.157593%,53.334045%);stop-opacity:1;"
       id="stop367" /><stop
       offset="0.578125"
       style="stop-color:rgb(50.98114%,51.765442%,52.941895%);stop-opacity:1;"
       id="stop369" /><stop
       offset="0.582031"
       style="stop-color:rgb(50.98114%,51.765442%,52.941895%);stop-opacity:1;"
       id="stop371" /><stop
       offset="0.585937"
       style="stop-color:rgb(50.98114%,51.765442%,52.549744%);stop-opacity:1;"
       id="stop373" /><stop
       offset="0.589844"
       style="stop-color:rgb(50.588989%,51.373291%,52.157593%);stop-opacity:1;"
       id="stop375" /><stop
       offset="0.59375"
       style="stop-color:rgb(50.196838%,50.98114%,52.157593%);stop-opacity:1;"
       id="stop377" /><stop
       offset="0.597656"
       style="stop-color:rgb(49.803162%,50.588989%,51.765442%);stop-opacity:1;"
       id="stop379" /><stop
       offset="0.601563"
       style="stop-color:rgb(49.803162%,50.588989%,51.373291%);stop-opacity:1;"
       id="stop381" /><stop
       offset="0.605469"
       style="stop-color:rgb(49.411011%,50.196838%,50.98114%);stop-opacity:1;"
       id="stop383" /><stop
       offset="0.609375"
       style="stop-color:rgb(49.01886%,49.803162%,50.98114%);stop-opacity:1;"
       id="stop385" /><stop
       offset="0.613281"
       style="stop-color:rgb(49.01886%,49.803162%,50.98114%);stop-opacity:1;"
       id="stop387" /><stop
       offset="0.617188"
       style="stop-color:rgb(48.626709%,49.411011%,50.588989%);stop-opacity:1;"
       id="stop389" /><stop
       offset="0.621094"
       style="stop-color:rgb(48.626709%,49.411011%,50.196838%);stop-opacity:1;"
       id="stop391" /><stop
       offset="0.625"
       style="stop-color:rgb(48.234558%,49.01886%,49.803162%);stop-opacity:1;"
       id="stop393" /><stop
       offset="0.628906"
       style="stop-color:rgb(47.842407%,48.626709%,49.803162%);stop-opacity:1;"
       id="stop395" /><stop
       offset="0.632812"
       style="stop-color:rgb(47.842407%,48.234558%,49.411011%);stop-opacity:1;"
       id="stop397" /><stop
       offset="0.636719"
       style="stop-color:rgb(47.450256%,47.842407%,49.01886%);stop-opacity:1;"
       id="stop399" /><stop
       offset="0.640625"
       style="stop-color:rgb(47.058105%,47.842407%,48.626709%);stop-opacity:1;"
       id="stop401" /><stop
       offset="0.644531"
       style="stop-color:rgb(47.058105%,47.842407%,48.626709%);stop-opacity:1;"
       id="stop403" /><stop
       offset="0.648438"
       style="stop-color:rgb(46.665955%,47.450256%,48.234558%);stop-opacity:1;"
       id="stop405" /><stop
       offset="0.652344"
       style="stop-color:rgb(46.665955%,47.058105%,48.234558%);stop-opacity:1;"
       id="stop407" /><stop
       offset="0.65625"
       style="stop-color:rgb(46.273804%,46.665955%,47.842407%);stop-opacity:1;"
       id="stop409" /><stop
       offset="0.660156"
       style="stop-color:rgb(45.881653%,46.665955%,47.450256%);stop-opacity:1;"
       id="stop411" /><stop
       offset="0.664062"
       style="stop-color:rgb(45.489502%,46.273804%,47.058105%);stop-opacity:1;"
       id="stop413" /><stop
       offset="0.667969"
       style="stop-color:rgb(45.097351%,45.881653%,47.058105%);stop-opacity:1;"
       id="stop415" /><stop
       offset="0.671875"
       style="stop-color:rgb(45.097351%,45.489502%,46.665955%);stop-opacity:1;"
       id="stop417" /><stop
       offset="0.675781"
       style="stop-color:rgb(45.097351%,45.489502%,46.665955%);stop-opacity:1;"
       id="stop419" /><stop
       offset="0.679687"
       style="stop-color:rgb(44.7052%,45.489502%,46.273804%);stop-opacity:1;"
       id="stop421" /><stop
       offset="0.683594"
       style="stop-color:rgb(44.313049%,45.097351%,45.881653%);stop-opacity:1;"
       id="stop423" /><stop
       offset="0.6875"
       style="stop-color:rgb(43.920898%,44.7052%,45.489502%);stop-opacity:1;"
       id="stop425" /><stop
       offset="0.691406"
       style="stop-color:rgb(43.920898%,44.313049%,45.489502%);stop-opacity:1;"
       id="stop427" /><stop
       offset="0.695313"
       style="stop-color:rgb(43.528748%,43.920898%,45.097351%);stop-opacity:1;"
       id="stop429" /><stop
       offset="0.699219"
       style="stop-color:rgb(43.136597%,43.920898%,44.7052%);stop-opacity:1;"
       id="stop431" /><stop
       offset="0.703125"
       style="stop-color:rgb(42.744446%,43.528748%,44.313049%);stop-opacity:1;"
       id="stop433" /><stop
       offset="0.707031"
       style="stop-color:rgb(42.744446%,43.528748%,44.313049%);stop-opacity:1;"
       id="stop435" /><stop
       offset="0.710938"
       style="stop-color:rgb(42.744446%,43.136597%,43.920898%);stop-opacity:1;"
       id="stop437" /><stop
       offset="0.714844"
       style="stop-color:rgb(42.352295%,42.744446%,43.920898%);stop-opacity:1;"
       id="stop439" /><stop
       offset="0.71875"
       style="stop-color:rgb(41.960144%,42.352295%,43.528748%);stop-opacity:1;"
       id="stop441" /><stop
       offset="0.722656"
       style="stop-color:rgb(41.567993%,42.352295%,43.136597%);stop-opacity:1;"
       id="stop443" /><stop
       offset="0.726562"
       style="stop-color:rgb(41.175842%,41.960144%,42.744446%);stop-opacity:1;"
       id="stop445" /><stop
       offset="0.730469"
       style="stop-color:rgb(41.175842%,41.567993%,42.352295%);stop-opacity:1;"
       id="stop447" /><stop
       offset="0.734375"
       style="stop-color:rgb(40.783691%,41.175842%,41.960144%);stop-opacity:1;"
       id="stop449" /><stop
       offset="0.738281"
       style="stop-color:rgb(40.783691%,41.175842%,41.960144%);stop-opacity:1;"
       id="stop451" /><stop
       offset="0.742188"
       style="stop-color:rgb(40.391541%,40.783691%,41.960144%);stop-opacity:1;"
       id="stop453" /><stop
       offset="0.746094"
       style="stop-color:rgb(39.99939%,40.391541%,41.567993%);stop-opacity:1;"
       id="stop455" /><stop
       offset="0.75"
       style="stop-color:rgb(39.607239%,40.391541%,41.175842%);stop-opacity:1;"
       id="stop457" /><stop
       offset="0.753906"
       style="stop-color:rgb(39.607239%,39.99939%,40.783691%);stop-opacity:1;"
       id="stop459" /><stop
       offset="0.757812"
       style="stop-color:rgb(39.215088%,39.607239%,40.391541%);stop-opacity:1;"
       id="stop461" /><stop
       offset="0.761719"
       style="stop-color:rgb(38.822937%,39.215088%,39.99939%);stop-opacity:1;"
       id="stop463" /><stop
       offset="0.765625"
       style="stop-color:rgb(38.430786%,38.822937%,39.99939%);stop-opacity:1;"
       id="stop465" /><stop
       offset="0.769531"
       style="stop-color:rgb(38.430786%,38.822937%,39.99939%);stop-opacity:1;"
       id="stop467" /><stop
       offset="0.773437"
       style="stop-color:rgb(38.038635%,38.430786%,39.607239%);stop-opacity:1;"
       id="stop469" /><stop
       offset="0.777344"
       style="stop-color:rgb(37.646484%,38.430786%,39.215088%);stop-opacity:1;"
       id="stop471" /><stop
       offset="0.78125"
       style="stop-color:rgb(37.646484%,38.038635%,38.822937%);stop-opacity:1;"
       id="stop473" /><stop
       offset="0.785156"
       style="stop-color:rgb(37.254333%,37.646484%,38.430786%);stop-opacity:1;"
       id="stop475" /><stop
       offset="0.789063"
       style="stop-color:rgb(36.862183%,37.254333%,38.038635%);stop-opacity:1;"
       id="stop477" /><stop
       offset="0.792969"
       style="stop-color:rgb(36.470032%,36.862183%,37.646484%);stop-opacity:1;"
       id="stop479" /><stop
       offset="0.796875"
       style="stop-color:rgb(36.077881%,36.470032%,37.254333%);stop-opacity:1;"
       id="stop481" /><stop
       offset="0.800781"
       style="stop-color:rgb(36.077881%,36.470032%,37.254333%);stop-opacity:1;"
       id="stop483" /><stop
       offset="0.804688"
       style="stop-color:rgb(35.68573%,36.077881%,37.254333%);stop-opacity:1;"
       id="stop485" /><stop
       offset="0.808594"
       style="stop-color:rgb(35.68573%,35.68573%,36.862183%);stop-opacity:1;"
       id="stop487" /><stop
       offset="0.8125"
       style="stop-color:rgb(35.293579%,35.68573%,36.470032%);stop-opacity:1;"
       id="stop489" /><stop
       offset="0.816406"
       style="stop-color:rgb(34.901428%,35.293579%,36.077881%);stop-opacity:1;"
       id="stop491" /><stop
       offset="0.820312"
       style="stop-color:rgb(34.509277%,34.901428%,35.68573%);stop-opacity:1;"
       id="stop493" /><stop
       offset="0.824219"
       style="stop-color:rgb(34.117126%,34.509277%,35.293579%);stop-opacity:1;"
       id="stop495" /><stop
       offset="0.828125"
       style="stop-color:rgb(34.117126%,34.509277%,35.293579%);stop-opacity:1;"
       id="stop497" /><stop
       offset="0.832031"
       style="stop-color:rgb(33.724976%,34.117126%,34.901428%);stop-opacity:1;"
       id="stop499" /><stop
       offset="0.835938"
       style="stop-color:rgb(33.332825%,33.724976%,34.509277%);stop-opacity:1;"
       id="stop501" /><stop
       offset="0.839844"
       style="stop-color:rgb(32.940674%,33.332825%,34.117126%);stop-opacity:1;"
       id="stop503" /><stop
       offset="0.84375"
       style="stop-color:rgb(32.940674%,32.940674%,33.724976%);stop-opacity:1;"
       id="stop505" /><stop
       offset="0.847656"
       style="stop-color:rgb(32.548523%,32.548523%,33.332825%);stop-opacity:1;"
       id="stop507" /><stop
       offset="0.851562"
       style="stop-color:rgb(32.156372%,32.156372%,32.940674%);stop-opacity:1;"
       id="stop509" /><stop
       offset="0.855469"
       style="stop-color:rgb(31.764221%,31.764221%,32.548523%);stop-opacity:1;"
       id="stop511" /><stop
       offset="0.859375"
       style="stop-color:rgb(31.764221%,31.764221%,32.548523%);stop-opacity:1;"
       id="stop513" /><stop
       offset="0.863281"
       style="stop-color:rgb(31.37207%,31.37207%,32.156372%);stop-opacity:1;"
       id="stop515" /><stop
       offset="0.867187"
       style="stop-color:rgb(30.979919%,30.979919%,31.764221%);stop-opacity:1;"
       id="stop517" /><stop
       offset="0.871094"
       style="stop-color:rgb(30.587769%,30.979919%,31.764221%);stop-opacity:1;"
       id="stop519" /><stop
       offset="0.875"
       style="stop-color:rgb(30.195618%,30.587769%,31.37207%);stop-opacity:1;"
       id="stop521" /><stop
       offset="0.878906"
       style="stop-color:rgb(29.803467%,30.195618%,30.979919%);stop-opacity:1;"
       id="stop523" /><stop
       offset="0.882813"
       style="stop-color:rgb(29.411316%,29.803467%,30.587769%);stop-opacity:1;"
       id="stop525" /><stop
       offset="0.886719"
       style="stop-color:rgb(29.411316%,29.411316%,30.195618%);stop-opacity:1;"
       id="stop527" /><stop
       offset="0.890625"
       style="stop-color:rgb(29.411316%,29.411316%,30.195618%);stop-opacity:1;"
       id="stop529" /><stop
       offset="0.894531"
       style="stop-color:rgb(29.019165%,29.019165%,29.803467%);stop-opacity:1;"
       id="stop531" /><stop
       offset="0.898438"
       style="stop-color:rgb(28.627014%,28.627014%,29.411316%);stop-opacity:1;"
       id="stop533" /><stop
       offset="0.902344"
       style="stop-color:rgb(28.234863%,28.234863%,29.019165%);stop-opacity:1;"
       id="stop535" /><stop
       offset="0.90625"
       style="stop-color:rgb(27.842712%,27.842712%,28.627014%);stop-opacity:1;"
       id="stop537" /><stop
       offset="0.910156"
       style="stop-color:rgb(27.450562%,27.450562%,28.234863%);stop-opacity:1;"
       id="stop539" /><stop
       offset="0.914062"
       style="stop-color:rgb(27.058411%,27.058411%,27.450562%);stop-opacity:1;"
       id="stop541" /><stop
       offset="0.917969"
       style="stop-color:rgb(26.66626%,26.66626%,27.058411%);stop-opacity:1;"
       id="stop543" /><stop
       offset="0.921875"
       style="stop-color:rgb(26.66626%,26.66626%,27.058411%);stop-opacity:1;"
       id="stop545" /><stop
       offset="0.925781"
       style="stop-color:rgb(26.274109%,26.274109%,26.66626%);stop-opacity:1;"
       id="stop547" /><stop
       offset="0.929688"
       style="stop-color:rgb(25.881958%,25.881958%,26.274109%);stop-opacity:1;"
       id="stop549" /><stop
       offset="0.933594"
       style="stop-color:rgb(25.489807%,25.489807%,25.881958%);stop-opacity:1;"
       id="stop551" /><stop
       offset="0.9375"
       style="stop-color:rgb(25.489807%,25.489807%,25.881958%);stop-opacity:1;"
       id="stop553" /><stop
       offset="1"
       style="stop-color:rgb(25.489807%,25.489807%,25.881958%);stop-opacity:1;"
       id="stop555" /></linearGradient></defs> <style
   type="text/css"
   id="style2"> .st0{fill:#003C70;} .st1{fill:#E57C00;} .st2{fill:#FFFFFF;} .st3{fill:#7C7C7B;} </style> <g
   id="g36"
   transform="translate(0,-86)"
   style="display:inline"> <path
   class="st0"
   d="m 100.7,155.3 v -18.7 c 0,-2.3 -1.3,-4.3 -4.4,-4.3 -1.8,0 -3.2,0.6 -4.4,1.8 v 21.2 h -6 v -18.8 c 0,-2.5 -1.7,-4.2 -4.9,-4.2 -1.8,0 -2.7,0.2 -3.9,0.7 v 22.3 h -6 v -24.9 c 2.6,-1.3 5.5,-1.9 9.9,-1.9 4.2,0 6.7,1.2 8.2,2.9 1.8,-1.6 4.4,-2.9 8.4,-2.9 6.2,0 9,3.9 9,8 v 18.7 h -5.9 z"
   id="path4"
   style="fill:#003c70" /> <path
   class="st0"
   d="m 122.6,132.2 c -3.5,0 -5.9,2.8 -5.7,9.1 l 10.9,-1.7 c 0,-5.2 -1.9,-7.4 -5.2,-7.4 z m -5.4,12.2 c 0.5,4.9 2.8,7.3 7.2,7.3 3,0 5.2,-0.7 6.6,-1.5 l 1.4,3.8 c -1.9,1 -4.7,1.9 -8.7,1.9 -7.5,0 -12.2,-4.8 -12.2,-13.7 0,-8.6 4.3,-13.6 11.2,-13.6 7,0 10.8,4.6 10.5,13.5 z"
   id="path6"
   style="fill:#003c70" /> <path
   class="st0"
   d="m 147.4,155.6 c -5.2,0 -7.2,-3.5 -7.2,-7.1 v -15.7 h -2.9 V 129 h 2.9 v -5.8 l 6,-1.7 v 7.5 h 4.3 v 3.8 h -4.3 v 15.4 c 0,2 0.8,3.4 2.9,3.4 0.5,0 0.9,-0.1 1.4,-0.2 v 3.7 c -0.6,0.2 -1.7,0.5 -3.1,0.5 z"
   id="path8"
   style="fill:#003c70" /> <path
   class="st0"
   d="m 171.1,155.3 v -18.5 c 0,-2.3 -1.1,-4.4 -4.6,-4.4 -1.6,0 -2.9,0.3 -4.2,1.1 v 21.9 h -6 V 117 h 6 v 13.1 c 2,-1 3.9,-1.4 5.9,-1.4 6.6,0 8.9,3.9 8.9,8 v 18.6 z"
   id="path10"
   style="fill:#003c70" /> <path
   class="st0"
   d="m 192.9,132.3 c -4.2,0 -5,4.8 -5,9.9 0,5 0.9,9.6 5,9.6 4.2,0 5,-4.6 5,-9.6 0,-5.1 -0.8,-9.9 -5,-9.9 z m 0,23.5 c -7.4,0 -10.9,-5.9 -10.9,-13.6 0,-7.9 3.6,-13.7 10.9,-13.7 7.4,0 10.9,5.8 10.9,13.7 0,7.8 -3.6,13.6 -10.9,13.6 z"
   id="path12"
   style="fill:#003c70" /> <path
   class="st0"
   d="m 223.2,132.5 c -0.8,-0.2 -1.7,-0.3 -2.6,-0.3 -5.2,0 -6.9,4.4 -6.9,10 0,6 1.9,9.9 6.5,9.9 1.4,0 2.4,-0.1 3.1,-0.6 v -19 z m -3.2,23.3 c -7.8,0 -12.2,-5 -12.2,-13.3 0,-8.6 4.7,-13.7 11.5,-13.7 1.5,0 2.8,0.1 4,0.5 V 117 h 6 v 36.9 c -2.3,1.2 -5.2,1.9 -9.3,1.9 z"
   id="path14"
   style="fill:#003c70" /> <path
   class="st1"
   d="m 244.4,132.1 c -1.3,0 -2.2,0.2 -3.1,0.5 v 19 c 0.7,0.3 1.6,0.4 2.6,0.4 4.7,0 7,-3.7 7,-10 0.1,-6.2 -1.6,-9.9 -6.5,-9.9 z m 0.9,23.6 c -1.5,0 -3.1,-0.2 -4,-0.5 v 10.7 h -5.9 v -35.4 c 2,-1.1 4.9,-1.9 9.1,-1.9 7.7,0 12.3,4.9 12.3,13.3 0.1,8.6 -4.6,13.8 -11.5,13.8 z"
   id="path16"
   style="fill:#e57c00" /> <path
   class="st1"
   d="m 274.7,140.9 c -5.6,0.7 -9.1,1.9 -9.1,6.7 0,3.4 2,4.9 5.5,4.9 1.4,0 2.7,-0.3 3.6,-0.7 z m -4,14.9 c -7.2,0 -10.7,-2.9 -10.7,-8 0,-6.9 6.7,-8.9 14.7,-9.7 v -1.4 c 0,-3.4 -2.1,-4.3 -5.2,-4.3 -2.5,0 -5,0.8 -6.6,1.6 l -1.4,-3.4 c 1.7,-0.8 4.9,-2 9,-2 5.4,0 9.7,2.3 9.7,9.1 V 154 c -2,1 -5.4,1.8 -9.5,1.8 z"
   id="path18"
   style="fill:#e57c00" /> <path
   class="st1"
   d="m 298.1,132.9 c -2,-0.7 -4.2,-0.6 -5.6,0.2 v 22.2 h -6 v -24.9 c 2.7,-1.3 6,-2 12.7,-1.9 z"
   id="path20"
   style="fill:#e57c00" /> <polygon
   class="st1"
   points="309.5,155.3 303.6,155.3 303.6,117 309.5,117 309.5,140.9 309.6,140.9 318,129 324,129 314.9,141.1 325.1,155.3 318.4,155.3 309.6,141.9 309.5,141.9 "
   id="polygon22"
   style="fill:#e57c00" /> <path
   class="st1"
   d="m 52.7,143.1 -10.1,7.1 h -6.5 l 12.6,-8.1 -12.3,-7.9 h 6.2 l 10,6.5 v 2.4 z M 31,128.8 v 26.5 h 26.5 v -26.5 z"
   id="path24"
   style="fill:#e57c00" /> <polyline
   class="st2"
   points="42.7,134.2 36.5,134.2 48.8,142.1 36.2,150.2 42.7,150.2 52.7,143.1 52.7,140.8 "
   id="polyline26"
   style="fill:#ffffff" /> <path
   class="st3"
   d="m 291.8,177.7 c 0,0 0.6,0.2 1.4,0.2 1.5,0 2.5,-0.9 2.5,-3.2 0,-1.7 -0.6,-2.7 -1.8,-2.7 -1.4,0 -2.2,1.7 -2.2,3 v 2.7 z m 0,-6.6 c 0,0.5 0,1.1 -0.1,1.5 v 0 c 0.4,-1.1 1.4,-1.8 2.6,-1.8 1.9,0 2.9,1.3 2.9,3.7 0,2.8 -1.6,4.4 -4.1,4.4 -1.5,0 -2.7,-0.3 -2.7,-0.3 v -11.4 h 1.4 z"
   id="path28"
   style="fill:#7c7c7b" /> <path
   class="st3"
   d="m 302.2,179.6 c -0.9,2.5 -2,3.4 -3.8,3.4 -0.4,0 -0.9,-0.1 -0.9,-0.1 l 0.1,-1.2 c 0,0 0.5,0.1 0.9,0.1 0.9,0 1.5,-0.5 2.1,-2 l 0.3,-0.9 -3,-7.9 h 1.6 l 1.5,4.1 c 0.3,0.8 0.4,1.4 0.6,2 v 0 c 0.1,-0.6 0.4,-1.5 0.8,-2.5 l 1.3,-3.7 h 1.5 z"
   id="path30"
   style="fill:#7c7c7b" /> <path
   class="st3"
   d="m 318.7,174.8 c 0,2.8 -1.5,4.3 -4.3,4.3 -3.4,0 -4,-1.9 -4,-3.8 v -7.1 h 1.5 v 7 c 0,1.5 0.5,2.7 2.7,2.7 1.9,0 2.8,-0.8 2.8,-2.9 v -6.8 h 1.4 v 6.6 z"
   id="path32"
   style="fill:#7c7c7b" /> <polygon
   class="st3"
   points="327,177.7 327,178.9 321.6,178.9 321.6,168.1 323.1,168.1 323.1,177.7 "
   id="polygon34"
   style="fill:#7c7c7b" /> </g> <g
   id="g1847"
   transform="matrix(0.4441709,0,0,0.45195153,7.3826004,5.2375904)"
   style="display:inline"><g
     clip-path="url(#clip1)"
     clip-rule="nonzero"
     id="g634"><g
       clip-path="url(#clip2)"
       clip-rule="nonzero"
       id="g632"><path
         style="display:inline;fill:#97bf3a;fill-opacity:1;fill-rule:nonzero;stroke:none"
         d="M 251.01172,354.25391 H 45.191406 V 217.85547 H 251.01172 Z m 0,0"
         id="path630" /></g></g><g
     clip-path="url(#clip3)"
     clip-rule="nonzero"
     id="g640"><g
       clip-path="url(#clip4)"
       clip-rule="nonzero"
       id="g638"><path
         style="display:inline;fill:url(#linear0);fill-rule:nonzero;stroke:none"
         d="M 251.02344,220.71484 H 53.171875 V 343.51562 H 251.02344 Z m 0,0"
         id="path636" /></g></g><path
     style="fill:#515154;fill-opacity:1;fill-rule:nonzero;stroke:none"
     d="m 687.59375,259.28125 -19.28906,-22.08203 h 11.98047 l 13.51562,16.39453 13.61719,-16.39453 h 11.62109 l -19.18359,22.08203 19.72656,22.58203 h -11.92578 l -13.85547,-16.66797 -14.32031,16.66797 H 667.86328 Z M 649.0625,220.71484 h 9.83594 v 9.26563 h -9.83594 z m 0,16.48438 h 9.83594 v 44.66406 h -9.83594 z m -35.74219,0 v -16.48438 h 9.83203 v 16.48438 H 637.625 v 7.03515 h -14.47266 v 23.47266 c 0,1.90625 0.10157,3.27344 0.3086,4.08203 0.1875,0.8086 0.59375,1.42188 1.1875,1.83594 1.01562,0.8125 3.41015,1.20703 7.16015,1.20703 h 5.81641 v 7.03125 h -9.55078 c -3.24219,0 -5.64844,-0.17969 -7.22656,-0.53125 -1.57813,-0.36719 -2.94532,-1.05469 -4.15625,-2.11328 -1.25391,-1.06641 -2.13282,-2.39844 -2.63282,-3.99219 -0.48828,-1.57422 -0.73828,-3.83203 -0.73828,-6.75781 v -24.23438 h -9.43359 v -7.03515 z m -28.98047,24.46875 h -16.45703 c -2.82812,0 -4.95312,0.27344 -6.34375,0.80859 -2.25781,0.88672 -3.37109,2.82422 -3.37109,5.8125 0,2.39844 0.72656,4.07813 2.19922,5.0586 1.48047,0.99609 3.99218,1.48437 7.51562,1.48437 h 16.45703 z m 0,-7.03516 c 0,-4.54297 -0.64843,-7.41406 -1.91797,-8.60937 -1.27343,-1.19532 -4.35937,-1.78907 -9.26562,-1.78907 h -23.30078 v -7.03515 h 25.4414 c 4.41407,0 7.78907,0.30859 10.12891,0.91406 2.35547,0.61719 4.22266,1.6875 5.61328,3.21875 1.20313,1.28125 2.01563,2.79688 2.45703,4.56641 0.45703,1.76172 0.67969,4.34375 0.67969,7.7539 v 28.21094 h -25.03516 c -4.71484,0 -7.87109,-0.15234 -9.5,-0.44141 -3.76953,-0.65625 -6.66406,-2.10937 -8.66796,-4.33984 -2,-2.25 -3,-5.12109 -3,-8.65625 0,-2.60156 0.53906,-4.92578 1.64453,-7.00781 1.08593,-2.07422 2.60937,-3.66797 4.5625,-4.76563 2.39453,-1.34765 6.5664,-2.01953 12.51953,-2.01953 z M 469.22656,237.19922 h 43.78125 c 6.03516,0 10.09375,0.18359 12.20703,0.5664 2.10157,0.36719 4.0586,1.24219 5.89063,2.61329 1.8125,1.41015 3.08594,3.12109 3.80078,5.12109 0.70703,2.02344 1.06641,4.94531 1.06641,8.76953 v 27.59375 h -9.83594 v -27.59375 c 0,-3.73437 -0.83203,-6.33594 -2.51563,-7.81641 -1.67578,-1.48437 -4.59375,-2.21875 -8.78125,-2.21875 h -7.64843 v 37.62891 h -9.84375 v -37.62891 h -18.28125 v 37.62891 h -9.83985 z m -25.55469,-16.48438 h 9.83594 v 9.26563 h -9.83594 z m 0,16.48438 h 9.83594 v 44.66406 h -9.83594 z m -35.94921,33.15234 16.20312,-33.15234 h 10.34375 l -22.91797,44.66406 h -7.90625 l -21.60937,-44.66406 h 10.73828 z m -42.34375,-8.68359 h -16.45313 c -2.83594,0 -4.95703,0.27344 -6.34766,0.80859 -2.25781,0.88672 -3.375,2.82422 -3.375,5.8125 0,2.39844 0.72657,4.07813 2.20704,5.0586 1.47265,0.99609 3.98437,1.48437 7.51562,1.48437 h 16.45313 z m 0,-7.03516 c 0,-4.54297 -0.64844,-7.41406 -1.91797,-8.60937 -1.27735,-1.19532 -4.35938,-1.78907 -9.26563,-1.78907 h -23.30469 v -7.03515 h 25.44141 c 4.41406,0 7.78906,0.30859 10.13281,0.91406 2.35157,0.61719 4.21875,1.6875 5.60938,3.21875 1.20703,1.28125 2.01953,2.79688 2.46094,4.56641 0.45312,1.76172 0.67968,4.34375 0.67968,7.7539 v 28.21094 h -25.03906 c -4.71484,0 -7.86719,-0.15234 -9.49609,-0.44141 -3.76563,-0.65625 -6.66797,-2.10937 -8.66797,-4.33984 -2.00391,-2.25 -3,-5.12109 -3,-8.65625 0,-2.60156 0.53906,-4.92578 1.64453,-7.00781 1.08203,-2.07422 2.60937,-3.66797 4.55859,-4.76563 2.39453,-1.34765 6.56641,-2.01953 12.52344,-2.01953 z m -91.35157,-17.43359 h 22.89844 c 4.33984,0 7.82031,0.42969 10.41797,1.28515 2.58984,0.84375 4.69531,2.2461 6.28906,4.21875 2.15235,2.51172 3.25781,6.70313 3.32813,12.5586 v 26.60156 h -9.84375 v -25.67187 c 0,-4.48047 -0.84375,-7.58594 -2.5586,-9.34375 -1.69922,-1.73829 -4.76562,-2.61329 -9.16015,-2.61329 h -11.53516 v 37.62891 h -9.83594 z m 0,0"
     id="path642" /><path
     id="path1712"
     style="fill:#4c4c4c;fill-opacity:1;stroke:none;stroke-width:0.74809"
     d="m 370.24098,312.29965 h 6.125 L 363.61335,341.709 h -1.80009 l -8.56799,-20.14002 -8.42772,20.14002 h -1.84685 l -12.8812,-29.40935 h 6.125 l 7.57443,17.5334 7.35233,-17.5334 h 4.23139 l 7.32897,17.5334 z m 0,0 m 91.18691,0 v 6.63931 l 0.3156,-0.50262 c 2.75858,-4.46517 5.5201,-6.69776 8.28745,-6.69776 2.15661,0 4.40965,1.09292 6.75621,3.2729 l -3.01575,5.02624 c -1.98712,-1.88484 -3.83105,-2.82872 -5.52887,-2.82872 -1.84685,0 -3.44531,0.88252 -4.79246,2.6417 -1.35007,1.75334 -2.02218,3.83397 -2.02218,6.24189 v 15.11379 h -5.75095 v -28.90673 z m 0,0 m -15.44351,11.53698 v 12.28506 c 0,0.98187 0.33313,1.47281 1.00524,1.47281 0.69257,0 1.77088,-0.51431 3.23784,-1.54295 v 3.495 c -1.30331,0.83576 -2.34655,1.40267 -3.13263,1.70659 -0.78024,0.30391 -1.59846,0.45586 -2.45468,0.45586 -2.45467,0 -3.90118,-0.96141 -4.33659,-2.88716 -2.4313,1.88776 -5.0204,2.82872 -7.76145,2.82872 -2.0105,0 -3.68786,-0.66627 -5.02625,-1.99881 -1.3413,-1.33254 -2.01049,-3.00405 -2.01049,-5.01455 0,-1.82348 0.65458,-3.45115 1.96374,-4.88597 1.30916,-1.4319 3.1677,-2.56572 5.57562,-3.40148 l 7.31727,-2.51312 v -1.54294 c 0,-3.47454 -1.73872,-5.21326 -5.21326,-5.21326 -3.12679,0 -6.16007,1.61307 -9.10568,4.83921 v -6.25358 c 2.21213,-2.61832 5.40321,-3.92748 9.57324,-3.92748 3.12387,0 5.62822,0.81822 7.51598,2.45468 0.62243,0.52308 1.1835,1.22149 1.68321,2.09232 0.50554,0.86498 0.82406,1.7358 0.95849,2.60662 0.14026,0.86499 0.2104,2.51313 0.2104,4.94443 z m -5.62238,11.65386 v -8.57967 l -3.83397,1.4728 c -1.94912,0.78023 -3.32842,1.5634 -4.13788,2.34948 -0.80361,0.78023 -1.20396,1.75918 -1.20396,2.93392 0,1.19227 0.37989,2.16829 1.14552,2.92223 0.7627,0.75686 1.75333,1.13383 2.96899,1.13383 1.82347,0 3.5096,-0.74225 5.0613,-2.23259 z m 0,0 m -36.60422,-8.22901 h -20.32704 c 0.14611,2.75859 1.07538,4.95611 2.78196,6.59256 1.70658,1.63645 3.90702,2.45467 6.60424,2.45467 3.76968,0 7.25006,-1.17181 10.43822,-3.51836 v 5.58731 c -1.76211,1.17766 -3.50668,2.01927 -5.23664,2.52481 -1.72412,0.49678 -3.74923,0.74809 -6.07825,0.74809 -3.17939,0 -5.7568,-0.6575 -7.72638,-1.97544 -1.97251,-1.32376 -3.55051,-3.10049 -4.73402,-5.33015 -1.17766,-2.22674 -1.76503,-4.80999 -1.76503,-7.74975 0,-4.39504 1.24195,-7.96601 3.72877,-10.71876 2.49267,-2.75858 5.7305,-4.13788 9.7135,-4.13788 3.83397,0 6.89063,1.34131 9.17582,4.02099 2.28226,2.68261 3.42485,6.27404 3.42485,10.7772 z m -20.19847,-3.42485 h 14.54103 c -0.14904,-2.28227 -0.82991,-4.03853 -2.04556,-5.27171 -1.21565,-1.23903 -2.84919,-1.85854 -4.89767,-1.85854 -2.05141,0 -3.72876,0.61951 -5.03793,1.85854 -1.30915,1.23318 -2.16245,2.98944 -2.55987,5.27171 z m 0,0 M 626.86308,297.256 h 36.65649 v 5.599 h -15.28912 v 38.35138 h -6.32371 V 302.855 h -15.04366 z m 0,0 m -12.28506,0.0701 h 6.28864 v 43.88024 h -6.28864 z m 0,0 m -45.17905,14.97351 v 3.68202 c 2.55403,-2.82872 5.45289,-4.24309 8.69657,-4.24309 1.80009,0 3.47454,0.46756 5.02624,1.40268 1.54878,0.92927 2.72644,2.20628 3.53006,3.83397 0.80945,1.62183 1.21564,4.19048 1.21564,7.703 v 16.52815 h -5.71588 v -16.45801 c 0,-2.95146 -0.45294,-5.06131 -1.35592,-6.32372 -0.89712,-1.26824 -2.40499,-1.90529 -4.52362,-1.90529 -2.69722,0 -4.98824,1.35007 -6.87309,4.04437 v 20.64265 h -5.84446 v -28.90673 z m 0,0 m -27.41296,-0.0584 c 4.40088,0 8.05659,1.42022 10.96422,4.25478 2.91346,2.83748 4.37165,6.40261 4.37165,10.69537 0,4.17003 -1.47865,7.63287 -4.4301,10.39146 -2.95438,2.75275 -6.67146,4.1262 -11.15124,4.1262 -4.34244,0 -7.96892,-1.39683 -10.88239,-4.19633 -2.90762,-2.79658 -4.35998,-6.28865 -4.35998,-10.47328 0,-4.2314 1.46697,-7.75269 4.40674,-10.5668 2.94561,-2.81995 6.63931,-4.2314 11.0811,-4.2314 z m -0.3156,5.15483 c -2.74398,0 -4.99703,0.90004 -6.75621,2.70014 -1.75334,1.80009 -2.63,4.09698 -2.63,6.88478 0,2.75859 0.90004,5.01455 2.70014,6.76789 1.80009,1.7475 4.1145,2.61832 6.94322,2.61832 2.80535,0 5.10222,-0.88251 6.89647,-2.65338 1.79133,-1.76795 2.68846,-4.03561 2.68846,-6.80296 0,-2.74105 -0.93512,-5.01456 -2.80535,-6.81465 -1.86439,-1.8001 -4.20801,-2.70014 -7.03673,-2.70014 z m 0,0 m -37.57439,9.86546 h -20.32705 c 0.14611,2.75859 1.07538,4.9561 2.78197,6.59256 1.70658,1.63644 3.90702,2.45467 6.60424,2.45467 3.76968,0 7.25006,-1.17182 10.43822,-3.51838 v 5.58732 c -1.76211,1.17765 -3.50668,2.01926 -5.23664,2.52481 -1.72412,0.49678 -3.74923,0.74809 -6.07825,0.74809 -3.17938,0 -5.7568,-0.6575 -7.72639,-1.97543 -1.9725,-1.32377 -3.55051,-3.10049 -4.73401,-5.33015 -1.17766,-2.22674 -1.76503,-4.81 -1.76503,-7.74976 0,-4.39505 1.24195,-7.96601 3.72877,-10.71876 2.49267,-2.75858 5.7305,-4.13788 9.7135,-4.13788 3.83397,0 6.89063,1.34132 9.17582,4.021 2.28226,2.68261 3.42485,6.27403 3.42485,10.7772 z m -20.19847,-3.42486 h 14.54102 c -0.14903,-2.28227 -0.8299,-4.03852 -2.04555,-5.27171 -1.21565,-1.23902 -2.84918,-1.85854 -4.89767,-1.85854 -2.05141,0 -3.72877,0.61952 -5.03792,1.85854 -1.30917,1.23319 -2.16246,2.98944 -2.55988,5.27171 z m 0,0" /></g></svg>
