<?xml version="1.0" encoding="UTF-8" standalone="no"?>
<svg
   xmlns:dc="http://purl.org/dc/elements/1.1/"
   xmlns:cc="http://creativecommons.org/ns#"
   xmlns:rdf="http://www.w3.org/1999/02/22-rdf-syntax-ns#"
   xmlns:svg="http://www.w3.org/2000/svg"
   xmlns="http://www.w3.org/2000/svg"
   height="128"
   width="358"
   xml:space="preserve"
   viewBox="0 0 358 128"
   y="0px"
   x="0px"
   id="Layer_1"
   version="1.1"><metadata
   id="metadata43"><rdf:RDF><cc:Work
       rdf:about=""><dc:format>image/svg+xml</dc:format><dc:type
         rdf:resource="http://purl.org/dc/dcmitype/StillImage" /><dc:title></dc:title></cc:Work></rdf:RDF></metadata><defs
   id="defs41" /> <style
   id="style2"
   type="text/css"> .st0{fill:#003C70;} .st1{fill:#E57C00;} .st2{fill:#FFFFFF;} .st3{fill:#7C7C7B;} </style> <g
   transform="translate(0,-86)"
   id="g36"> <path
   style="fill:#003c70"
   id="path4"
   d="m 100.7,155.3 v -18.7 c 0,-2.3 -1.3,-4.3 -4.4,-4.3 -1.8,0 -3.2,0.6 -4.4,1.8 v 21.2 h -6 v -18.8 c 0,-2.5 -1.7,-4.2 -4.9,-4.2 -1.8,0 -2.7,0.2 -3.9,0.7 v 22.3 h -6 v -24.9 c 2.6,-1.3 5.5,-1.9 9.9,-1.9 4.2,0 6.7,1.2 8.2,2.9 1.8,-1.6 4.4,-2.9 8.4,-2.9 6.2,0 9,3.9 9,8 v 18.7 h -5.9 z"
   class="st0" /> <path
   style="fill:#003c70"
   id="path6"
   d="m 122.6,132.2 c -3.5,0 -5.9,2.8 -5.7,9.1 l 10.9,-1.7 c 0,-5.2 -1.9,-7.4 -5.2,-7.4 z m -5.4,12.2 c 0.5,4.9 2.8,7.3 7.2,7.3 3,0 5.2,-0.7 6.6,-1.5 l 1.4,3.8 c -1.9,1 -4.7,1.9 -8.7,1.9 -7.5,0 -12.2,-4.8 -12.2,-13.7 0,-8.6 4.3,-13.6 11.2,-13.6 7,0 10.8,4.6 10.5,13.5 z"
   class="st0" /> <path
   style="fill:#003c70"
   id="path8"
   d="m 147.4,155.6 c -5.2,0 -7.2,-3.5 -7.2,-7.1 v -15.7 h -2.9 V 129 h 2.9 v -5.8 l 6,-1.7 v 7.5 h 4.3 v 3.8 h -4.3 v 15.4 c 0,2 0.8,3.4 2.9,3.4 0.5,0 0.9,-0.1 1.4,-0.2 v 3.7 c -0.6,0.2 -1.7,0.5 -3.1,0.5 z"
   class="st0" /> <path
   style="fill:#003c70"
   id="path10"
   d="m 171.1,155.3 v -18.5 c 0,-2.3 -1.1,-4.4 -4.6,-4.4 -1.6,0 -2.9,0.3 -4.2,1.1 v 21.9 h -6 V 117 h 6 v 13.1 c 2,-1 3.9,-1.4 5.9,-1.4 6.6,0 8.9,3.9 8.9,8 v 18.6 z"
   class="st0" /> <path
   style="fill:#003c70"
   id="path12"
   d="m 192.9,132.3 c -4.2,0 -5,4.8 -5,9.9 0,5 0.9,9.6 5,9.6 4.2,0 5,-4.6 5,-9.6 0,-5.1 -0.8,-9.9 -5,-9.9 z m 0,23.5 c -7.4,0 -10.9,-5.9 -10.9,-13.6 0,-7.9 3.6,-13.7 10.9,-13.7 7.4,0 10.9,5.8 10.9,13.7 0,7.8 -3.6,13.6 -10.9,13.6 z"
   class="st0" /> <path
   style="fill:#003c70"
   id="path14"
   d="m 223.2,132.5 c -0.8,-0.2 -1.7,-0.3 -2.6,-0.3 -5.2,0 -6.9,4.4 -6.9,10 0,6 1.9,9.9 6.5,9.9 1.4,0 2.4,-0.1 3.1,-0.6 v -19 z m -3.2,23.3 c -7.8,0 -12.2,-5 -12.2,-13.3 0,-8.6 4.7,-13.7 11.5,-13.7 1.5,0 2.8,0.1 4,0.5 V 117 h 6 v 36.9 c -2.3,1.2 -5.2,1.9 -9.3,1.9 z"
   class="st0" /> <path
   style="fill:#e57c00"
   id="path16"
   d="m 244.4,132.1 c -1.3,0 -2.2,0.2 -3.1,0.5 v 19 c 0.7,0.3 1.6,0.4 2.6,0.4 4.7,0 7,-3.7 7,-10 0.1,-6.2 -1.6,-9.9 -6.5,-9.9 z m 0.9,23.6 c -1.5,0 -3.1,-0.2 -4,-0.5 v 10.7 h -5.9 v -35.4 c 2,-1.1 4.9,-1.9 9.1,-1.9 7.7,0 12.3,4.9 12.3,13.3 0.1,8.6 -4.6,13.8 -11.5,13.8 z"
   class="st1" /> <path
   style="fill:#e57c00"
   id="path18"
   d="m 274.7,140.9 c -5.6,0.7 -9.1,1.9 -9.1,6.7 0,3.4 2,4.9 5.5,4.9 1.4,0 2.7,-0.3 3.6,-0.7 z m -4,14.9 c -7.2,0 -10.7,-2.9 -10.7,-8 0,-6.9 6.7,-8.9 14.7,-9.7 v -1.4 c 0,-3.4 -2.1,-4.3 -5.2,-4.3 -2.5,0 -5,0.8 -6.6,1.6 l -1.4,-3.4 c 1.7,-0.8 4.9,-2 9,-2 5.4,0 9.7,2.3 9.7,9.1 V 154 c -2,1 -5.4,1.8 -9.5,1.8 z"
   class="st1" /> <path
   style="fill:#e57c00"
   id="path20"
   d="m 298.1,132.9 c -2,-0.7 -4.2,-0.6 -5.6,0.2 v 22.2 h -6 v -24.9 c 2.7,-1.3 6,-2 12.7,-1.9 z"
   class="st1" /> <polygon
   style="fill:#e57c00"
   id="polygon22"
   points="309.5,117 309.5,140.9 309.6,140.9 318,129 324,129 314.9,141.1 325.1,155.3 318.4,155.3 309.6,141.9 309.5,141.9 309.5,155.3 303.6,155.3 303.6,117 "
   class="st1" /> <path
   style="fill:#e57c00"
   id="path24"
   d="m 52.7,143.1 -10.1,7.1 h -6.5 l 12.6,-8.1 -12.3,-7.9 h 6.2 l 10,6.5 v 2.4 z M 31,128.8 v 26.5 h 26.5 v -26.5 z"
   class="st1" /> <polyline
   style="fill:#ffffff"
   id="polyline26"
   points="42.7,134.2 36.5,134.2 48.8,142.1 36.2,150.2 42.7,150.2 52.7,143.1 52.7,140.8 "
   class="st2" /> <path
   style="fill:#7c7c7b"
   id="path28"
   d="m 291.8,177.7 c 0,0 0.6,0.2 1.4,0.2 1.5,0 2.5,-0.9 2.5,-3.2 0,-1.7 -0.6,-2.7 -1.8,-2.7 -1.4,0 -2.2,1.7 -2.2,3 v 2.7 z m 0,-6.6 c 0,0.5 0,1.1 -0.1,1.5 v 0 c 0.4,-1.1 1.4,-1.8 2.6,-1.8 1.9,0 2.9,1.3 2.9,3.7 0,2.8 -1.6,4.4 -4.1,4.4 -1.5,0 -2.7,-0.3 -2.7,-0.3 v -11.4 h 1.4 z"
   class="st3" /> <path
   style="fill:#7c7c7b"
   id="path30"
   d="m 302.2,179.6 c -0.9,2.5 -2,3.4 -3.8,3.4 -0.4,0 -0.9,-0.1 -0.9,-0.1 l 0.1,-1.2 c 0,0 0.5,0.1 0.9,0.1 0.9,0 1.5,-0.5 2.1,-2 l 0.3,-0.9 -3,-7.9 h 1.6 l 1.5,4.1 c 0.3,0.8 0.4,1.4 0.6,2 v 0 c 0.1,-0.6 0.4,-1.5 0.8,-2.5 l 1.3,-3.7 h 1.5 z"
   class="st3" /> <path
   style="fill:#7c7c7b"
   id="path32"
   d="m 318.7,174.8 c 0,2.8 -1.5,4.3 -4.3,4.3 -3.4,0 -4,-1.9 -4,-3.8 v -7.1 h 1.5 v 7 c 0,1.5 0.5,2.7 2.7,2.7 1.9,0 2.8,-0.8 2.8,-2.9 v -6.8 h 1.4 v 6.6 z"
   class="st3" /> <polygon
   style="fill:#7c7c7b"
   id="polygon34"
   points="321.6,178.9 321.6,168.1 323.1,168.1 323.1,177.7 327,177.7 327,178.9 "
   class="st3" /> </g> </svg>
