<?xml version="1.0" encoding="UTF-8" standalone="no"?>
<!-- Created with Inkscape (http://www.inkscape.org/) -->

<svg
   width="210mm"
   height="297mm"
   viewBox="0 0 210 297"
   version="1.1"
   id="svg5"
   inkscape:version="1.2.2 (b0a8486541, 2022-12-01)"
   sodipodi:docname="venn-arch.svg"
   xmlns:inkscape="http://www.inkscape.org/namespaces/inkscape"
   xmlns:sodipodi="http://sodipodi.sourceforge.net/DTD/sodipodi-0.dtd"
   xmlns:xlink="http://www.w3.org/1999/xlink"
   xmlns="http://www.w3.org/2000/svg"
   xmlns:svg="http://www.w3.org/2000/svg">
  <sodipodi:namedview
     id="namedview7"
     pagecolor="#ffffff"
     bordercolor="#111111"
     borderopacity="1"
     inkscape:showpageshadow="0"
     inkscape:pageopacity="0"
     inkscape:pagecheckerboard="1"
     inkscape:deskcolor="#d1d1d1"
     inkscape:document-units="mm"
     showgrid="false"
     inkscape:zoom="0.84096521"
     inkscape:cx="684.92727"
     inkscape:cy="596.93314"
     inkscape:window-width="1856"
     inkscape:window-height="1133"
     inkscape:window-x="707"
     inkscape:window-y="541"
     inkscape:window-maximized="0"
     inkscape:current-layer="layer1" />
  <defs
     id="defs2" />
  <g
     inkscape:label="Layer 1"
     inkscape:groupmode="layer"
     id="layer1">
    <path
       id="path8025"
       style="display:none;fill:none;fill-opacity:0.686233;stroke:#000000;stroke-width:0.261123"
       d="M 25.796891,163.16557 A 56.2091,56.2091 0 0 0 78.791298,222.41519 56.2091,56.2091 0 0 0 138.04092,169.42078 56.2091,56.2091 0 0 0 85.046519,110.17115 56.2091,56.2091 0 0 0 25.796891,163.16557 Z" />
    <path
       id="path8139"
       style="display:none;fill:none;fill-opacity:0.686233;stroke:#000000;stroke-width:0.281596"
       d="m 127.56658,229.71116 a 60.616059,60.616059 0 0 0 68.85367,-51.06651 60.616059,60.616059 0 0 0 -51.06652,-68.85365 60.616059,60.616059 0 0 0 -68.85365,51.06649 60.616059,60.616059 0 0 0 51.0665,68.85367 z" />
    <path
       id="path8143"
       style="display:none;fill:none;fill-opacity:0.686233;stroke:#000000;stroke-width:0.185347"
       d="m 67.984008,142.98609 a 39.897617,39.897617 0 0 1 35.045602,-44.220405 39.897617,39.897617 0 0 1 44.22042,35.045625 39.897617,39.897617 0 0 1 -35.04561,44.2204 39.897617,39.897617 0 0 1 -44.220412,-35.04562 z" />
    <path
       id="path8200"
       style="fill:#807000;fill-opacity:0.53874999;stroke:none;stroke-width:0.32238"
       d="M 78.633393,186.65875 A 69.39517,69.39517 0 0 1 139.5893,109.74482 69.39517,69.39517 0 0 1 216.50326,170.70077 69.39517,69.39517 0 0 1 155.54734,247.6147 69.39517,69.39517 0 0 1 78.633393,186.65875 Z" />
    <path
       id="path8202"
       style="display:inline;fill:#008000;fill-opacity:0.54;stroke:none;stroke-width:0.32238"
       d="m 43.41838,122.483 a 69.39517,69.39517 0 0 1 60.9559,-76.913929 69.39517,69.39517 0 0 1 76.91397,60.955949 69.39517,69.39517 0 0 1 -60.95592,76.91393 A 69.39517,69.39517 0 0 1 43.41838,122.483 Z" />
    <path
       id="path8204"
       style="fill:#000580;fill-opacity:0.54000002;stroke:none;stroke-width:0.32238"
       d="M 3.1326572,189.80602 A 69.39517,69.39517 0 0 1 64.088558,112.89208 69.39517,69.39517 0 0 1 141.00253,173.84804 69.39517,69.39517 0 0 1 80.046601,250.76197 69.39517,69.39517 0 0 1 3.1326572,189.80602 Z" />
  </g>
  <g
     inkscape:groupmode="layer"
     id="layer2"
     inkscape:label="Layer 2">
    <text
       xml:space="preserve"
       style="font-style:normal;font-variant:normal;font-weight:normal;font-stretch:normal;font-size:25.0472px;font-family:'Roboto Condensed';-inkscape-font-specification:'Roboto Condensed, Normal';font-variant-ligatures:normal;font-variant-caps:normal;font-variant-numeric:normal;font-variant-east-asian:normal;fill:#000000;fill-opacity:0.686233;stroke-width:0.264583"
       id="text8033"
       inkscape:label="text4308"
       transform="translate(4.7229666,-33.345063)"><textPath
         xlink:href="#path8143"
         id="textPath8145">Collaboration</textPath></text>
    <text
       xml:space="preserve"
       style="font-style:normal;font-variant:normal;font-weight:normal;font-stretch:normal;font-size:25.0472px;font-family:'Roboto Condensed';-inkscape-font-specification:'Roboto Condensed, Normal';font-variant-ligatures:normal;font-variant-caps:normal;font-variant-numeric:normal;font-variant-east-asian:normal;fill:#000000;fill-opacity:0.686233;stroke-width:0.264583"
       id="text8031"
       inkscape:label="text4308"
       transform="translate(-12.590142,21.397716)"><textPath
         xlink:href="#path8025"
         id="textPath8137">System</textPath></text>
    <text
       xml:space="preserve"
       style="font-style:normal;font-variant:normal;font-weight:normal;font-stretch:normal;font-size:25.0472px;font-family:'Roboto Condensed';-inkscape-font-specification:'Roboto Condensed, Normal';font-variant-ligatures:normal;font-variant-caps:normal;font-variant-numeric:normal;font-variant-east-asian:normal;fill:#000000;fill-opacity:0.686233;stroke-width:0.264583"
       id="text8029"
       inkscape:label="text4308"
       transform="translate(11.011384,12.276848)"><textPath
         xlink:href="#path8139"
         id="textPath8141">Knowledge</textPath></text>
  </g>
</svg>
